<svg width="462" height="630" viewBox="0 0 462 630" fill="none" xmlns="http://www.w3.org/2000/svg">
<mask id="mask0_628_1696" style="mask-type:alpha" maskUnits="userSpaceOnUse" x="-3" y="0" width="458" height="630">
<path d="M241.817 377.147L289.79 376.471L289.771 375.093L241.797 375.77L241.817 377.15L241.817 377.147Z" fill="#6294C5"/>
<path d="M75.6786 504.155L219.993 502.119C243.477 459.979 267.005 417.861 290.578 375.766L265.802 334.219L264.617 334.923L288.985 375.789L219.175 500.749L75.6591 502.774L75.6786 504.155Z" fill="#6294C5"/>
<path d="M145.261 377.475L51.8608 544.664L4.28725 545.336L4.30661 546.708L52.6743 546.025C83.8844 490.038 115.149 434.078 146.467 378.143L145.261 377.474L145.261 377.475Z" fill="#6294C5"/>
<path d="M3.13621 463.62L147.448 461.584C170.93 419.451 194.459 377.335 218.033 335.238C209.71 321.276 201.384 307.312 193.056 293.344L0.772209 296.057L0.791677 297.437L192.28 294.736L216.444 335.262L146.633 460.215L3.11674 462.24L3.13621 463.62Z" fill="#6294C5"/>
<path d="M1.37587 338.985L217.247 335.939L217.228 334.562L1.35644 337.608L1.37591 338.987L1.37587 338.985Z" fill="#6294C5"/>
<path d="M170.447 419.71L218.818 419.027C250.089 362.92 281.418 306.842 312.803 250.794C304.465 236.837 296.139 222.873 287.824 208.902L191.482 210.261L191.501 211.641L287.045 210.293L311.212 250.817L218.003 417.653L170.428 418.325L170.447 419.703L170.447 419.71Z" fill="#6294C5"/>
<path d="M194.408 459.891L171.006 501.771L172.211 502.442L195.611 460.561L194.406 459.891L194.408 459.891Z" fill="#6294C5"/>
<path d="M276.892 354.837L265.191 375.777L266.397 376.451L278.1 355.512L276.892 354.837Z" fill="#6294C5"/>
<path d="M145.295 295.053L215.693 169.057C207.364 155.095 199.037 141.131 190.712 127.163L-1.56994 129.876L-1.55047 131.256L189.935 128.555L214.099 169.079L144.094 294.383L145.3 295.053L145.295 295.053Z" fill="#6294C5"/>
<path d="M168.103 253.524L312.017 251.494L311.997 250.114L168.084 252.144L168.103 253.524Z" fill="#6294C5"/>
<path d="M-0.969148 172.803L214.899 169.757L214.88 168.377L-0.988616 171.423L-0.969148 172.803Z" fill="#6294C5"/>
<path d="M144.089 294.383L120.69 336.268L121.898 336.939L145.295 295.053L144.089 294.384L144.089 294.383Z" fill="#6294C5"/>
<path d="M120.693 336.268L73.8958 420.034L75.0928 420.705L121.896 336.939L120.693 336.268Z" fill="#6294C5"/>
<path d="M240.033 293.029L216.635 334.915L217.841 335.585L241.238 293.7L240.033 293.03L240.033 293.029Z" fill="#6294C5"/>
<path d="M96.131 295.747L120.702 336.956L121.886 336.252L97.3165 295.043L96.131 295.747Z" fill="#6294C5"/>
<path d="M142.917 211.293L96.121 295.059L97.3259 295.729L144.123 211.964L142.917 211.293Z" fill="#6294C5"/>
<path d="M288.618 293.376L336.987 292.694C376.044 222.619 415.172 152.581 454.371 82.5802C446.051 68.6109 437.724 54.6469 429.39 40.6883L-2.74698 46.7849L-2.72755 48.1622L428.615 42.0767L452.78 82.6L336.171 291.325L288.599 291.996L288.618 293.376Z" fill="#6294C5"/>
<path d="M403.247 0.885746L380.43 41.7275L381.635 42.3979L404.839 0.863281L403.247 0.885746Z" fill="#6294C5"/>
<path d="M-2.13937 89.7095L453.585 83.2801L453.565 81.9028L-2.1588 88.3323L-2.13937 89.7095Z" fill="#6294C5"/>
<path d="M333.631 125.493L286.832 209.262L288.036 209.932L334.833 126.162L333.636 125.491L333.631 125.493Z" fill="#6294C5"/>
<path d="M380.431 41.7268L357.031 83.6099L358.237 84.2804L381.636 42.3973L380.431 41.7268Z" fill="#6294C5"/>
<path d="M332.469 43.0928L357.04 84.3018L358.227 83.591L333.659 42.3833L332.474 43.0914L332.469 43.0928Z" fill="#6294C5"/>
<path d="M404.999 82.933L334.804 208.586L336.013 209.257L406.211 83.6033L405.005 82.9329L404.999 82.933Z" fill="#6294C5"/>
<path d="M380.439 42.4136L405.009 83.62L406.195 82.9158L381.625 41.7095L380.439 42.4136Z" fill="#6294C5"/>
<path d="M332.461 42.4027L309.061 84.2858L310.266 84.9562L333.67 43.073L332.466 42.4026L332.461 42.4027Z" fill="#6294C5"/>
<path d="M309.062 84.2864L262.265 168.057L263.468 168.726L310.267 84.9568L309.062 84.2864Z" fill="#6294C5"/>
<path d="M428.4 41.0496L404.999 82.9327L406.205 83.6031L429.603 41.72L428.4 41.0496Z" fill="#6294C5"/>
<path d="M404.413 41.388L381.016 83.2711L382.221 83.9415L405.619 42.0584L404.413 41.388Z" fill="#6294C5"/>
<path d="M404.422 42.0753L428.993 83.2816L430.18 82.5774L405.609 41.3711L404.422 42.0753Z" fill="#6294C5"/>
<path d="M284.501 43.7671L309.071 84.9735L310.256 84.2693L285.685 43.063L284.501 43.7671Z" fill="#6294C5"/>
<path d="M308.475 42.7415L285.078 84.6246L286.281 85.295L309.68 43.4119L308.475 42.7415Z" fill="#6294C5"/>
<path d="M284.491 43.0803L261.089 84.9635L262.293 85.6339L285.694 43.7508L284.491 43.0803Z" fill="#6294C5"/>
<path d="M236.527 44.4464L261.1 85.6554L262.284 84.9446L237.712 43.7383L236.527 44.4464Z" fill="#6294C5"/>
<path d="M260.513 44.106L285.086 85.3124L286.271 84.6082L261.697 43.4019L260.513 44.106Z" fill="#6294C5"/>
<path d="M236.517 43.7571L213.118 85.6402L214.324 86.3106L237.722 44.4275L236.517 43.7571Z" fill="#6294C5"/>
<path d="M188.555 45.1207L213.126 86.327L214.313 85.6228L189.741 44.4165L188.555 45.1207Z" fill="#6294C5"/>
<path d="M212.534 44.095L189.131 85.9781L190.336 86.6486L213.736 44.7654L212.534 44.095Z" fill="#6294C5"/>
<path d="M164.571 45.4586L189.142 86.6649L190.327 85.9607L165.758 44.7544L164.57 45.4586L164.571 45.4586Z" fill="#6294C5"/>
<path d="M164.56 44.7718L141.163 86.6549L142.366 87.3253L165.768 45.4422L164.56 44.7718Z" fill="#6294C5"/>
<path d="M116.6 46.1363L141.173 87.3426L142.358 86.6385L117.787 45.4321L116.6 46.1363Z" fill="#6294C5"/>
<path d="M116.591 45.4485L93.194 87.3316L94.3989 88.0021L117.799 46.1189L116.593 45.4485L116.591 45.4485Z" fill="#6294C5"/>
<path d="M140.578 45.1131L117.177 86.9936L118.383 87.664L141.784 45.7835L140.577 45.1131L140.578 45.1131Z" fill="#6294C5"/>
<path d="M92.6036 45.7864L69.2064 87.6695L70.4113 88.3399L93.8085 46.4568L92.6036 45.7864Z" fill="#6294C5"/>
<path d="M44.644 47.1536L69.2174 88.3626L70.4015 87.6531L45.8281 46.4468L44.6427 47.1549L44.644 47.1536Z" fill="#6294C5"/>
<path d="M44.6352 46.4636L21.2341 88.3468L22.4416 89.0172L45.8388 47.1341L44.6352 46.4636Z" fill="#6294C5"/>
<path d="M264.639 251.815L288.036 209.933L286.832 209.262L263.433 251.146L264.639 251.815Z" fill="#6294C5"/>
<path d="M238.872 210.628L263.442 251.834L264.629 251.13L240.057 209.923L238.872 210.628Z" fill="#6294C5"/>
<path d="M240.653 252.154L264.053 210.272L262.846 209.602L239.448 251.485L240.653 252.154Z" fill="#6294C5"/>
<path d="M214.887 210.965L239.457 252.172L240.643 251.468L216.072 210.261L214.885 210.965L214.887 210.965Z" fill="#6294C5"/>
<path d="M228.366 231.553L240.066 210.61L238.861 209.94L227.164 230.883L228.361 231.553L228.366 231.553Z" fill="#6294C5"/>
<path d="M203.187 231.908L215.471 252.509L216.658 251.804L204.375 231.204L203.197 231.908L203.187 231.908Z" fill="#6294C5"/>
<path d="M192.682 252.842L216.082 210.948L214.876 210.274L191.476 252.158L192.681 252.837L192.682 252.842Z" fill="#6294C5"/>
<path d="M167.524 170.079L190.915 128.193L189.718 127.523L166.317 169.41L167.524 170.079Z" fill="#6294C5"/>
<path d="M141.754 128.887L166.326 170.096L167.514 169.393L142.94 128.183L141.754 128.887Z" fill="#6294C5"/>
<path d="M119.554 170.756L142.951 128.87L141.745 128.199L118.346 170.087L119.554 170.756Z" fill="#6294C5"/>
<path d="M143.536 170.417L166.937 128.534L165.73 127.865L142.334 169.749L143.531 170.419L143.536 170.417Z" fill="#6294C5"/>
<path d="M71.5832 171.432L94.9804 129.547L93.7755 128.876L70.377 170.763L71.574 171.433L71.5832 171.432Z" fill="#6294C5"/>
<path d="M93.7852 129.563L118.356 170.772L119.544 170.069L94.972 128.859L93.7865 129.563L93.7852 129.563Z" fill="#6294C5"/>
<path d="M69.8005 129.902L94.3687 171.111L95.5569 170.408L70.9874 129.198L69.8098 129.902L69.8005 129.902Z" fill="#6294C5"/>
<path d="M47.5942 171.771L70.998 129.886L69.801 129.215L46.3999 171.102L47.6034 171.771L47.5942 171.771Z" fill="#6294C5"/>
<path d="M45.8146 130.241L70.388 171.45L71.5657 170.747L46.9922 129.537L45.808 130.241L45.8146 130.241Z" fill="#6294C5"/>
<path d="M23.6102 172.109L47.0087 130.223L45.8051 129.553L22.4067 171.44L23.6102 172.109Z" fill="#6294C5"/>
<path d="M21.8266 130.579L34.114 151.183L35.3009 150.479L23.0148 129.875L21.828 130.579L21.8266 130.579Z" fill="#6294C5"/>
<path d="M68.6189 46.1253L45.2204 88.0084L46.4253 88.6788L69.8251 46.7957L68.6189 46.1253Z" fill="#6294C5"/>
<path d="M169.87 336.263L193.269 294.377L192.063 293.708L168.665 335.594L169.87 336.263Z" fill="#6294C5"/>
<path d="M168.085 294.732L192.659 335.941L193.836 335.237L169.267 294.028L168.079 294.731L168.085 294.732Z" fill="#6294C5"/>
<path d="M145.88 336.601L169.281 294.715L168.074 294.046L144.674 335.931L145.88 336.601Z" fill="#6294C5"/>
<path d="M144.097 295.07L168.669 336.279L169.858 335.575L145.284 294.366L144.097 295.07Z" fill="#6294C5"/>
<path d="M73.9289 337.616L97.3261 295.73L96.1212 295.061L72.7227 336.947L73.9197 337.617L73.9289 337.616Z" fill="#6294C5"/>
<path d="M60.443 317.032L72.7317 337.637L73.9093 336.925L61.6232 316.323L60.4364 317.032L60.443 317.032Z" fill="#6294C5"/>
<path d="M49.939 337.958L73.3427 296.071L72.1365 295.399L48.7353 337.28L49.939 337.958Z" fill="#6294C5"/>
<path d="M25.9549 338.292L49.3534 296.406L48.1499 295.737L24.7487 337.623L25.9549 338.292Z" fill="#6294C5"/>
<path d="M5.47947 629.807L101.822 628.448C125.305 586.313 148.834 544.198 172.407 502.102L147.631 460.557L146.454 461.261L170.82 502.124L101.011 627.084L5.46008 628.433L5.47955 629.812L5.47947 629.807Z" fill="#6294C5"/>
<path d="M124.243 503.119L147.641 461.239L146.444 460.568L123.042 502.449L124.25 503.119L124.243 503.119Z" fill="#6294C5"/>
<path d="M98.4756 461.932L123.046 503.135L124.235 502.431L99.6625 461.228L98.4769 461.932L98.4756 461.932Z" fill="#6294C5"/>
<path d="M100.257 503.457L123.657 461.577L122.45 460.906L99.0511 502.787L100.256 503.457L100.257 503.457Z" fill="#6294C5"/>
<path d="M148.216 502.093L135.927 481.488L134.749 482.197L147.034 502.802L148.221 502.093L148.216 502.093Z" fill="#6294C5"/>
<path d="M99.6368 544.334L52.8398 628.102L54.0447 628.772L100.842 545.006L99.6368 544.336L99.6368 544.334Z" fill="#6294C5"/>
<path d="M50.4936 461.917L38.7937 482.86L40 483.535L51.6973 462.593L50.4936 461.917Z" fill="#6294C5"/>
<path d="M118.347 170.087L71.5503 253.853L72.7566 254.523L119.554 170.757L118.346 170.088L118.347 170.087Z" fill="#6294C5"/>
<path d="M46.392 171.1L34.6921 192.043L35.8984 192.716L47.5957 171.776L46.3921 171.101L46.392 171.1Z" fill="#6294C5"/>
<path d="M72.7234 336.94L61.0208 357.883L62.2272 358.558L73.9297 337.619L72.7327 336.941L72.7234 336.94Z" fill="#6294C5"/>
<path d="M239.447 251.482L227.746 272.425L228.951 273.1L240.652 252.165L239.447 251.487L239.447 251.482Z" fill="#6294C5"/>
<path d="M261.089 84.9631L249.388 105.906L250.592 106.58L262.293 85.6402L261.089 84.9631Z" fill="#6294C5"/>
</mask>
<g mask="url(#mask0_628_1696)">
<rect x="-26.7764" y="-4.87305" width="547.792" height="647.554" rx="70" transform="rotate(-0.423073 -26.7764 -4.87305)" fill="white"/>
<rect x="-26.7764" y="-4.87305" width="547.792" height="647.554" rx="70" transform="rotate(-0.423073 -26.7764 -4.87305)" fill="url(#paint0_linear_628_1696)" fill-opacity="0.69"/>
<rect x="-26.7764" y="-4.87305" width="547.792" height="647.554" rx="70" transform="rotate(-0.423073 -26.7764 -4.87305)" fill="url(#paint1_radial_628_1696)" style="mix-blend-mode:overlay"/>
<rect x="-26.7764" y="-4.87305" width="547.792" height="647.554" rx="70" transform="rotate(-0.423073 -26.7764 -4.87305)" fill="#6294C5" fill-opacity="0.9" style="mix-blend-mode:color"/>
</g>
<defs>
<linearGradient id="paint0_linear_628_1696" x1="-26.7764" y1="498.922" x2="550.037" y2="422.369" gradientUnits="userSpaceOnUse">
<stop stop-color="#576265"/>
<stop offset="0.192708" stop-color="#9EA1A1"/>
<stop offset="0.431144" stop-color="#848B8A"/>
<stop offset="0.479303" stop-color="#576265"/>
<stop offset="0.792245" stop-color="#576265"/>
<stop offset="0.878824" stop-color="#757A7B"/>
<stop offset="1" stop-color="#576265"/>
</linearGradient>
<radialGradient id="paint1_radial_628_1696" cx="0" cy="0" r="1" gradientUnits="userSpaceOnUse" gradientTransform="translate(-51.6181 -67.1255) rotate(54.4615) scale(530.395 912.64)">
<stop stop-color="white"/>
<stop offset="1" stop-color="white" stop-opacity="0"/>
</radialGradient>
</defs>
</svg>
