<svg width="454" height="733" viewBox="0 0 454 733" fill="none" xmlns="http://www.w3.org/2000/svg">
<mask id="mask0_330_1902" style="mask-type:alpha" maskUnits="userSpaceOnUse" x="0" y="0" width="573" height="733">
<path d="M74.8177 387.171L100.387 342.888C108.991 357.781 117.59 372.677 126.184 387.576C117.572 402.463 108.974 417.359 100.387 432.265L74.5908 387.579L74.8239 387.171H74.8177ZM100.387 346.134L76.4555 387.576L100.387 429.014L124.319 387.576L100.387 346.134Z" fill="#5A5A5A"/>
<path d="M149.415 430.234L174.979 385.954L201.254 431.453H148.709L149.415 430.234ZM174.979 389.197L151.525 429.822H198.435L174.979 389.197Z" fill="#5A5A5A"/>
<path d="M125.251 386.76H174.979V388.392H125.251V386.76Z" fill="#5A5A5A"/>
<path d="M149.414 344.109L174.511 300.635C191.714 300.635 208.916 300.635 226.116 300.635C209.059 330.15 192.012 359.675 174.977 389.21L149.183 344.51L149.42 344.106L149.414 344.109ZM175.445 302.26L151.047 344.51L174.979 385.948L223.308 302.26H175.445Z" fill="#5A5A5A"/>
<path d="M325.573 388.386L349.027 429.014L372.485 388.389H325.573V388.386ZM348.323 431.045L322.76 386.758C340.268 386.758 357.782 386.758 375.301 386.758L349.027 432.265L348.323 431.045Z" fill="#5A5A5A"/>
<path d="M200.545 430.231L225.409 473.294L224.01 474.11L199.146 431.047L200.545 430.231Z" fill="#5A5A5A"/>
<path d="M248.868 431.045L224.24 388.392H174.979V386.76H225.173L250.271 430.235L248.863 431.046L248.868 431.045Z" fill="#5A5A5A"/>
<path d="M225.639 473.699L250.037 515.956H297.888L249.571 432.265L225.639 473.699ZM248.861 517.171L223.774 473.699C232.365 458.801 240.964 443.906 249.571 429.014C266.613 458.539 283.658 488.064 300.707 517.589C283.505 517.589 266.304 517.558 249.105 517.589L248.87 517.179L248.861 517.171Z" fill="#5A5A5A"/>
<path d="M248.868 516.361L273.732 473.302L275.142 474.11L250.278 517.169L248.87 516.36L248.868 516.361Z" fill="#5A5A5A"/>
<path d="M236.437 452.576L199.141 387.98L200.539 387.172L237.835 451.768L236.427 452.578L236.437 452.576Z" fill="#5A5A5A"/>
<path d="M299.299 429.822H349.027V431.452H299.299V429.822Z" fill="#5A5A5A"/>
<path d="M249.571 429.822H297.888L273.969 388.392H224.707V386.76H274.901C283.492 401.667 292.094 416.565 300.708 431.454H249.571V429.822Z" fill="#5A5A5A"/>
<path d="M323.46 473.301L349.027 429.014C357.626 443.907 366.224 458.802 374.823 473.699C366.236 488.604 357.637 503.501 349.027 518.391C340.435 503.493 331.837 488.597 323.23 473.705L323.464 473.301H323.46ZM349.027 432.265L325.095 473.705L349.027 515.134L372.958 473.699L349.027 432.265Z" fill="#5A5A5A"/>
<path d="M422.915 387.983L398.051 344.917L399.459 344.101L424.323 387.167L422.913 387.982L422.915 387.983Z" fill="#5A5A5A"/>
<path d="M398.288 343.695L423.619 299.822C432.225 314.714 440.823 329.609 449.415 344.506C440.98 359.138 432.536 373.765 424.085 388.386C407.198 388.386 390.311 388.386 373.424 388.386C364.853 373.468 356.254 358.57 347.628 343.692L398.288 343.695ZM423.619 303.071L399.221 345.326H350.439L374.357 386.764H423.152L447.55 344.51L423.619 303.071Z" fill="#5A5A5A"/>
<path d="M361.459 365.229H411.187V366.859H361.459V365.229Z" fill="#5A5A5A"/>
<path d="M522.133 387.573L497.745 345.323H449.882L498.211 429.011L522.133 387.573ZM498.914 344.106L524.007 387.576L498.211 432.265C481.172 402.74 464.127 373.217 447.075 343.698C464.278 343.688 481.479 343.688 498.679 343.698L498.912 344.106H498.914Z" fill="#5A5A5A"/>
<path d="M400.164 431.454L423.619 472.08L447.073 431.454H400.164ZM422.915 474.111L397.344 429.823H449.892L423.619 475.331L422.915 474.111Z" fill="#5A5A5A"/>
<path d="M373.19 559.421L398.289 515.95C415.486 515.925 432.688 515.925 449.895 515.95L398.756 604.525C390.158 589.627 381.559 574.73 372.96 559.833L373.195 559.429L373.19 559.421ZM399.221 517.581L374.823 559.831L398.755 601.274L447.084 517.581H399.221Z" fill="#5A5A5A"/>
<path d="M447.78 516.361L473.347 472.08L499.62 517.581C482.103 517.581 464.589 517.581 447.076 517.581L447.777 516.361H447.78ZM473.347 475.331L449.891 515.956H496.812L473.347 475.331Z" fill="#5A5A5A"/>
<path d="M398.053 559.421L422.917 516.361L424.326 517.175L399.462 560.243L398.054 559.421H398.053Z" fill="#5A5A5A"/>
<path d="M423.619 559.015H572.803V560.647H423.619V559.015Z" fill="#5A5A5A"/>
<path d="M423.619 560.647H373.891V559.028H423.619V560.653V560.647Z" fill="#5A5A5A"/>
<path d="M400.167 603.709L424.088 645.137H471.936L448.017 603.709H400.167ZM422.915 646.364L397.344 602.077H448.949C457.56 616.969 466.163 631.866 474.756 646.768H423.153L422.915 646.364Z" fill="#5A5A5A"/>
<path d="M224.707 300.632H274.435V302.263H224.707V300.632Z" fill="#5A5A5A"/>
<path d="M273.503 301.446L249.105 259.199H198.444C207.036 244.295 215.635 229.395 224.241 214.499H274.901C291.591 243.506 308.322 272.488 325.095 301.444C316.66 316.073 308.217 330.699 299.765 345.321C282.568 345.321 265.367 345.321 248.165 345.321L273.495 301.441L273.503 301.446ZM250.281 257.98L275.367 301.446L250.97 343.698H298.833L323.231 301.446L273.969 216.134H225.173L201.242 257.573H250.037L250.272 257.982L250.281 257.98Z" fill="#5A5A5A"/>
<path d="M275.137 301.043L300.001 344.106L298.592 344.914L273.728 301.851L275.126 301.042L275.137 301.043Z" fill="#5A5A5A"/>
<path d="M273.73 301.043L298.594 257.98L300.004 258.79L275.14 301.853L273.741 301.043H273.73Z" fill="#5A5A5A"/>
<path d="M225.412 214.911L250.276 257.979L248.868 258.788L224.004 215.725L225.403 214.912L225.412 214.911Z" fill="#5A5A5A"/>
<path d="M286.166 280.324L248.87 215.73L250.278 214.911L287.574 279.507L286.166 280.324Z" fill="#5A5A5A"/>
<path d="M174.979 214.501H224.707V216.132H174.979V214.501Z" fill="#5A5A5A"/>
<path d="M124.546 214.911L150.114 170.624L175.911 215.312L150.114 260.008C141.503 245.113 132.901 230.217 124.309 215.321L124.542 214.913L124.546 214.911ZM150.114 173.887L126.183 215.321L150.114 256.759L174.046 215.318L150.114 173.887Z" fill="#5A5A5A"/>
<path d="M299.299 257.569H349.027V259.2H299.299V257.569Z" fill="#5A5A5A"/>
<path d="M350.436 259.199L373.891 299.822L397.344 259.199H350.436ZM373.185 301.856L347.628 257.572C365.136 257.572 382.65 257.572 400.17 257.572L373.891 303.071L373.183 301.851L373.185 301.856Z" fill="#5A5A5A"/>
<path d="M176.388 130.008L200.32 171.438H248.172L224.241 130.008H176.388ZM199.139 172.661L173.572 128.373H225.173C233.759 143.281 242.362 158.179 250.98 173.068H199.377L199.137 172.659L199.139 172.661Z" fill="#5A5A5A"/>
<path d="M187.411 149.909H237.139V151.541H187.411V149.909Z" fill="#5A5A5A"/>
<path d="M75.5228 299.825L100.387 256.759L126.662 302.263C109.462 302.263 92.2563 302.23 75.0582 302.263C50.0522 258.917 25.0329 215.582 0 172.258C8.42372 157.62 16.8671 142.992 25.3302 128.375H75.5228V130.008H26.261L1.86321 172.258L75.5228 299.825ZM100.387 260.011L76.9308 300.638H123.844L100.387 260.011Z" fill="#5A5A5A"/>
<path d="M348.323 258.791L298.366 172.258C306.811 157.629 315.254 143.002 323.696 128.375H572.803V130.008H324.629L300.231 172.255L349.721 257.972L348.315 258.791H348.323Z" fill="#5A5A5A"/>
<path d="M422.915 301.043L448.017 257.565H572.803V259.197H448.949L424.322 301.851L422.912 301.042L422.915 301.043Z" fill="#5A5A5A"/>
<path d="M423.619 300.632H572.803V302.263H423.619V300.632Z" fill="#5A5A5A"/>
<path d="M299.299 171.438H572.803V173.069H299.299V171.438Z" fill="#5A5A5A"/>
<path d="M124.547 215.725L49.7217 86.1262C58.1475 71.4891 66.5909 56.8623 75.052 42.2458H572.803V43.8759H75.989L51.6005 86.1262L125.953 214.911L124.547 215.724V215.725Z" fill="#5A5A5A"/>
<path d="M50.6592 85.3118H572.803V86.9434H50.6592V85.3118Z" fill="#5A5A5A"/>
<path d="M0.930664 171.441H100.387V173.073H0.930664V171.441Z" fill="#5A5A5A"/>
<path d="M124.546 43.4732L99.4541 0H101.334L125.961 42.6543L124.562 43.4732H124.546Z" fill="#5A5A5A"/>
<path d="M298.594 602.487L322.755 560.647H274.901L250.503 602.899L299.765 688.211H448.483V689.836H298.833C282.153 660.829 265.422 631.849 248.639 602.894C257.061 588.256 265.505 573.628 273.969 559.011H325.571L300.001 603.298L298.592 602.484L298.594 602.487Z" fill="#5A5A5A"/>
<path d="M249.571 602.082H398.755V603.713H249.571V602.082Z" fill="#5A5A5A"/>
<path d="M474.053 646.363L449.426 689.02L473.824 731.272H572.803V732.904H472.881C464.458 718.265 456.015 703.638 447.551 689.02L472.645 645.55L474.053 646.36V646.363Z" fill="#5A5A5A"/>
<path d="M448.482 688.209H572.802V689.841H448.482V688.209Z" fill="#5A5A5A"/>
<path d="M63.0908 63.7788H572.803V65.4105H63.0908V63.7788Z" fill="#5A5A5A"/>
<path d="M13.3633 149.909H87.9553V151.541H13.3633V149.909Z" fill="#5A5A5A"/>
<path d="M311.73 149.909H572.802V151.541H311.73V149.909Z" fill="#5A5A5A"/>
<path d="M436.051 279.097H572.803V280.729H436.051V279.097Z" fill="#5A5A5A"/>
</mask>
<g mask="url(#mask0_330_1902)">
<g filter="url(#filter0_ii_330_1902)">
<rect x="-257" y="-27" width="1141" height="769" rx="70" fill="url(#paint0_linear_330_1902)"/>
<rect x="-257" y="-27" width="1141" height="769" rx="70" fill="url(#paint1_radial_330_1902)" style="mix-blend-mode:overlay"/>
<rect x="-257" y="-27" width="1141" height="769" rx="70" fill="#6294C5" fill-opacity="0.5" style="mix-blend-mode:color"/>
</g>
</g>
<defs>
<filter id="filter0_ii_330_1902" x="-257" y="-28.5" width="1141" height="772" filterUnits="userSpaceOnUse" color-interpolation-filters="sRGB">
<feFlood flood-opacity="0" result="BackgroundImageFix"/>
<feBlend mode="normal" in="SourceGraphic" in2="BackgroundImageFix" result="shape"/>
<feColorMatrix in="SourceAlpha" type="matrix" values="0 0 0 0 0 0 0 0 0 0 0 0 0 0 0 0 0 0 127 0" result="hardAlpha"/>
<feOffset dy="3"/>
<feGaussianBlur stdDeviation="0.75"/>
<feComposite in2="hardAlpha" operator="arithmetic" k2="-1" k3="1"/>
<feColorMatrix type="matrix" values="0 0 0 0 1 0 0 0 0 1 0 0 0 0 1 0 0 0 0.4 0"/>
<feBlend mode="normal" in2="shape" result="effect1_innerShadow_330_1902"/>
<feColorMatrix in="SourceAlpha" type="matrix" values="0 0 0 0 0 0 0 0 0 0 0 0 0 0 0 0 0 0 127 0" result="hardAlpha"/>
<feOffset dy="-3"/>
<feGaussianBlur stdDeviation="0.75"/>
<feComposite in2="hardAlpha" operator="arithmetic" k2="-1" k3="1"/>
<feColorMatrix type="matrix" values="0 0 0 0 0 0 0 0 0 0 0 0 0 0 0 0 0 0 0.5 0"/>
<feBlend mode="normal" in2="effect1_innerShadow_330_1902" result="effect2_innerShadow_330_1902"/>
</filter>
<linearGradient id="paint0_linear_330_1902" x1="-257" y1="571.28" x2="902.765" y2="301.307" gradientUnits="userSpaceOnUse">
<stop stop-color="#576265"/>
<stop offset="0.192708" stop-color="#9EA1A1"/>
<stop offset="0.431144" stop-color="#848B8A"/>
<stop offset="0.479303" stop-color="#576265"/>
<stop offset="0.792245" stop-color="#576265"/>
<stop offset="0.878824" stop-color="#757A7B"/>
<stop offset="1" stop-color="#576265"/>
</linearGradient>
<radialGradient id="paint1_radial_330_1902" cx="0" cy="0" r="1" gradientUnits="userSpaceOnUse" gradientTransform="translate(-308.743 -100.928) rotate(38.5958) scale(821.612 1457.31)">
<stop stop-color="white"/>
<stop offset="1" stop-color="white" stop-opacity="0"/>
</radialGradient>
</defs>
</svg>
