<svg width="1304" height="818" viewBox="0 0 1304 818" fill="none" xmlns="http://www.w3.org/2000/svg">
<mask id="mask0_275_2677" style="mask-type:alpha" maskUnits="userSpaceOnUse" x="-168" y="0" width="1472" height="818">
<path d="M620.883 576.466L568.407 546.168L569.365 544.501L621.838 574.799L620.883 576.466Z" fill="#5A5A5A"/>
<path d="M621.838 574.799L1043.09 818H1039.24L620.884 576.466L621.838 574.799Z" fill="#5A5A5A"/>
<path d="M1303.54 182.89L203.481 818H199.637L1303.54 180.669V182.89Z" fill="#5A5A5A"/>
<path d="M620.884 635.39L673.357 605.093L674.316 606.761L621.838 637.058L620.884 635.392V635.39Z" fill="#5A5A5A"/>
<path d="M623.295 0V818H619.431V0H623.295Z" fill="#5A5A5A"/>
<path d="M92.7588 818L620.404 513.369L622.318 516.707L100.455 818H92.7588Z" fill="#5A5A5A"/>
<path d="M1142.27 818L620.404 516.707L622.318 513.369L1149.96 818H1142.27Z" fill="#5A5A5A"/>
<path d="M302.66 818L1303.54 240.149V244.593L310.358 818H302.66Z" fill="#5A5A5A"/>
<path d="M567.92 545.334V0H569.851V545.334H567.92Z" fill="#5A5A5A"/>
<path d="M411.936 332.426L1252.99 818H1249.15L410.979 334.093L411.935 332.426H411.936Z" fill="#5A5A5A"/>
<path d="M1303.54 789.924L410.499 274.334L412.415 270.998L1303.54 785.481V789.924Z" fill="#5A5A5A"/>
<path d="M726.793 334.093L621.838 394.685L620.884 393.018L725.833 332.427L726.792 334.094L726.793 334.093Z" fill="#5A5A5A"/>
<path d="M727.277 0V333.253H725.347V0H727.277Z" fill="#5A5A5A"/>
<path d="M726.792 332.426L1303.54 665.408V667.628L725.833 334.093L726.792 332.426Z" fill="#5A5A5A"/>
<path d="M938.144 454.446V818H934.279V454.446H938.144Z" fill="#5A5A5A"/>
<path d="M1148.05 333.26V696.815H1144.18V333.26H1148.05Z" fill="#5A5A5A"/>
<path d="M1303.54 426.369L725.354 92.5583L727.271 89.2217L1303.54 421.924V426.369V426.369Z" fill="#5A5A5A"/>
<path d="M465.857 0L1303.54 483.632V485.852L462.009 0H465.857Z" fill="#5A5A5A"/>
<path d="M462.975 301.295L725.354 149.814L727.271 153.151L464.892 304.631L462.975 301.295Z" fill="#5A5A5A"/>
<path d="M-117.143 818L567.928 422.479L569.845 425.818L-109.446 818H-117.143Z" fill="#5A5A5A"/>
<path d="M569.364 182.612L412.423 273.219V818H410.491V272.113L568.407 180.942L569.365 182.61L569.364 182.612Z" fill="#5A5A5A"/>
<path d="M885.66 0L726.792 91.7232L725.833 90.0553L881.814 0H885.66Z" fill="#5A5A5A"/>
<path d="M992.535 0L779.746 122.855L777.829 119.518L984.839 0H992.535Z" fill="#5A5A5A"/>
<path d="M1200.53 0V242.373H1196.66V0H1200.53Z" fill="#5A5A5A"/>
<path d="M1303.54 122.299L1041.64 273.499L1040.69 271.832L1303.54 120.082V122.303V122.299Z" fill="#5A5A5A"/>
</mask>
<g mask="url(#mask0_275_2677)">
<g filter="url(#filter0_ii_275_2677)">
<rect x="-104.659" y="-10.3545" width="1354.36" height="912.225" rx="70" fill="url(#paint0_linear_275_2677)"/>
<rect x="-104.659" y="-10.3545" width="1354.36" height="912.225" rx="70" fill="url(#paint1_radial_275_2677)" style="mix-blend-mode:overlay"/>
<rect x="-104.659" y="-10.3545" width="1354.36" height="912.225" rx="70" fill="#6294C5" fill-opacity="0.5" style="mix-blend-mode:color"/>
</g>
</g>
<defs>
<filter id="filter0_ii_275_2677" x="-104.659" y="-11.8545" width="1354.36" height="915.226" filterUnits="userSpaceOnUse" color-interpolation-filters="sRGB">
<feFlood flood-opacity="0" result="BackgroundImageFix"/>
<feBlend mode="normal" in="SourceGraphic" in2="BackgroundImageFix" result="shape"/>
<feColorMatrix in="SourceAlpha" type="matrix" values="0 0 0 0 0 0 0 0 0 0 0 0 0 0 0 0 0 0 127 0" result="hardAlpha"/>
<feOffset dy="3"/>
<feGaussianBlur stdDeviation="0.75"/>
<feComposite in2="hardAlpha" operator="arithmetic" k2="-1" k3="1"/>
<feColorMatrix type="matrix" values="0 0 0 0 1 0 0 0 0 1 0 0 0 0 1 0 0 0 0.4 0"/>
<feBlend mode="normal" in2="shape" result="effect1_innerShadow_275_2677"/>
<feColorMatrix in="SourceAlpha" type="matrix" values="0 0 0 0 0 0 0 0 0 0 0 0 0 0 0 0 0 0 127 0" result="hardAlpha"/>
<feOffset dy="-3"/>
<feGaussianBlur stdDeviation="0.75"/>
<feComposite in2="hardAlpha" operator="arithmetic" k2="-1" k3="1"/>
<feColorMatrix type="matrix" values="0 0 0 0 0 0 0 0 0 0 0 0 0 0 0 0 0 0 0.5 0"/>
<feBlend mode="normal" in2="effect1_innerShadow_275_2677" result="effect2_innerShadow_275_2677"/>
</filter>
<linearGradient id="paint0_linear_275_2677" x1="-104.659" y1="699.355" x2="1271.89" y2="378.718" gradientUnits="userSpaceOnUse">
<stop stop-color="#576265"/>
<stop offset="0.192708" stop-color="#9EA1A1"/>
<stop offset="0.431144" stop-color="#848B8A"/>
<stop offset="0.479303" stop-color="#576265"/>
<stop offset="0.792245" stop-color="#576265"/>
<stop offset="0.878824" stop-color="#757A7B"/>
<stop offset="1" stop-color="#576265"/>
</linearGradient>
<radialGradient id="paint1_radial_275_2677" cx="0" cy="0" r="1" gradientUnits="userSpaceOnUse" gradientTransform="translate(-166.078 -98.0511) rotate(38.5783) scale(975.01 1729.16)">
<stop stop-color="white"/>
<stop offset="1" stop-color="white" stop-opacity="0"/>
</radialGradient>
</defs>
</svg>
