<svg width="725" height="435" viewBox="0 0 725 435" fill="none" xmlns="http://www.w3.org/2000/svg">
<mask id="mask0_357_1377" style="mask-type:alpha" maskUnits="userSpaceOnUse" x="0" y="0" width="777" height="435">
<path d="M0.59083 111.78L0.539062 102.359L2.46225 102.349L2.50519 110.163L7.26885 110.137L7.27768 111.743L0.59083 111.78Z" fill="#707070"/>
<path d="M416.595 305.177L388.907 289.393L389.406 288.513L417.093 304.297L416.595 305.177Z" fill="#5A5A5A"/>
<path d="M417.093 304.297L639.36 430.996L637.338 431.008L416.596 305.177L417.093 304.297Z" fill="#5A5A5A"/>
<path d="M774.516 96.1947L197.752 433.423L195.73 433.434L774.51 95.0266L774.516 96.1947Z" fill="#5A5A5A"/>
<path d="M416.766 336.169L444.278 320.082L444.787 320.957L417.273 337.044L416.766 336.17L416.766 336.169Z" fill="#5A5A5A"/>
<path d="M416.198 1.96613L418.562 432.21L416.529 432.221L414.165 1.97729L416.198 1.96613Z" fill="#5A5A5A"/>
<path d="M139.515 433.743L416.16 271.991L417.177 273.741L143.563 433.721L139.515 433.743Z" fill="#5A5A5A"/>
<path d="M691.526 430.71L416.171 273.747L417.168 271.986L695.574 430.687L691.526 430.71Z" fill="#5A5A5A"/>
<path d="M249.917 433.136L774.682 126.311L774.695 128.649L253.966 433.114L249.917 433.136Z" fill="#5A5A5A"/>
<path d="M388.648 288.956L387.072 2.12616L388.088 2.12058L389.664 288.95L388.648 288.956Z" fill="#5A5A5A"/>
<path d="M305.99 177.423L749.763 430.39L747.741 430.401L305.491 178.303L305.989 177.423L305.99 177.423Z" fill="#5A5A5A"/>
<path d="M776.271 415.477L305.066 146.873L306.064 145.112L776.258 413.14L776.271 415.477Z" fill="#5A5A5A"/>
<path d="M471.6 177.39L416.573 209.563L416.066 208.689L471.091 176.516L471.6 177.391L471.6 177.39Z" fill="#5A5A5A"/>
<path d="M470.889 1.66556L471.853 176.947L470.837 176.952L469.874 1.67114L470.889 1.66556Z" fill="#5A5A5A"/>
<path d="M471.595 176.513L775.912 349.985L775.918 351.152L471.096 177.393L471.595 176.513Z" fill="#5A5A5A"/>
<path d="M583.112 240.081L584.163 431.3L582.13 431.311L581.079 240.092L583.112 240.081Z" fill="#5A5A5A"/>
<path d="M693.165 175.734L694.216 366.953L692.184 366.964L691.133 175.745L693.165 175.734Z" fill="#5A5A5A"/>
<path d="M775.22 224.258L470.144 50.354L471.143 48.5935L775.207 221.92L775.22 224.257L775.22 224.258Z" fill="#5A5A5A"/>
<path d="M333.39 2.42119L775.386 254.376L775.393 255.544L331.366 2.43231L333.39 2.42119Z" fill="#5A5A5A"/>
<path d="M332.744 160.902L470.31 80.4689L471.328 82.2183L333.763 162.651L332.744 160.902Z" fill="#5A5A5A"/>
<path d="M29.1139 434.35L388.297 224.338L389.315 226.088L33.1621 434.328L29.1139 434.35Z" fill="#5A5A5A"/>
<path d="M388.359 98.1705L306.075 146.281L307.65 432.819L306.633 432.825L305.056 145.704L387.851 97.2947L388.36 98.1692L388.359 98.1705Z" fill="#5A5A5A"/>
<path d="M554.194 1.20778L470.899 49.9106L470.39 49.0361L552.171 1.21889L554.194 1.20778Z" fill="#5A5A5A"/>
<path d="M610.407 0.898886L498.841 66.1318L497.823 64.3824L606.358 0.921132L610.407 0.898886Z" fill="#5A5A5A"/>
<path d="M719.804 0.29773L720.505 127.779L718.472 127.79L717.771 0.308899L719.804 0.29773Z" fill="#5A5A5A"/>
<path d="M774.342 64.3256L637.026 144.609L636.519 143.735L774.335 63.1597L774.342 64.3278L774.342 64.3256Z" fill="#5A5A5A"/>
</mask>
<g mask="url(#mask0_357_1377)">
<g filter="url(#filter0_ii_357_1377)">
<rect x="33.2852" y="-1.37579" width="712.363" height="479.811" rx="70" transform="rotate(-0.314857 33.2852 -1.37579)" fill="#111113"/>
<rect x="33.2852" y="-1.37579" width="712.363" height="479.811" rx="70" transform="rotate(-0.314857 33.2852 -1.37579)" fill="url(#paint0_radial_357_1377)" style="mix-blend-mode:overlay"/>
<rect x="33.2852" y="-1.37579" width="712.363" height="479.811" rx="70" transform="rotate(-0.314857 33.2852 -1.37579)" fill="#111113" style="mix-blend-mode:color"/>
</g>
</g>
<defs>
<filter id="filter0_ii_357_1377" x="33.6689" y="-6.4068" width="714.222" height="485.951" filterUnits="userSpaceOnUse" color-interpolation-filters="sRGB">
<feFlood flood-opacity="0" result="BackgroundImageFix"/>
<feBlend mode="normal" in="SourceGraphic" in2="BackgroundImageFix" result="shape"/>
<feColorMatrix in="SourceAlpha" type="matrix" values="0 0 0 0 0 0 0 0 0 0 0 0 0 0 0 0 0 0 127 0" result="hardAlpha"/>
<feOffset dy="3"/>
<feGaussianBlur stdDeviation="0.75"/>
<feComposite in2="hardAlpha" operator="arithmetic" k2="-1" k3="1"/>
<feColorMatrix type="matrix" values="0 0 0 0 1 0 0 0 0 1 0 0 0 0 1 0 0 0 0.4 0"/>
<feBlend mode="normal" in2="shape" result="effect1_innerShadow_357_1377"/>
<feColorMatrix in="SourceAlpha" type="matrix" values="0 0 0 0 0 0 0 0 0 0 0 0 0 0 0 0 0 0 127 0" result="hardAlpha"/>
<feOffset dy="-3"/>
<feGaussianBlur stdDeviation="0.75"/>
<feComposite in2="hardAlpha" operator="arithmetic" k2="-1" k3="1"/>
<feColorMatrix type="matrix" values="0 0 0 0 0 0 0 0 0 0 0 0 0 0 0 0 0 0 0.5 0"/>
<feBlend mode="normal" in2="effect1_innerShadow_357_1377" result="effect2_innerShadow_357_1377"/>
</filter>
<radialGradient id="paint0_radial_357_1377" cx="0" cy="0" r="1" gradientUnits="userSpaceOnUse" gradientTransform="translate(0.980345 -47.5023) rotate(38.5783) scale(512.834 909.499)">
<stop stop-color="white"/>
<stop offset="1" stop-color="white" stop-opacity="0"/>
</radialGradient>
</defs>
</svg>
