<svg width="183" height="75" viewBox="0 0 183 75" fill="none" xmlns="http://www.w3.org/2000/svg">
<mask id="mask0_482_1447" style="mask-type:alpha" maskUnits="userSpaceOnUse" x="-1" y="0" width="185" height="76">
<rect x="-0.125" y="0.875" width="183.25" height="74.25" fill="#262A36" stroke="white" stroke-width="0.25"/>
</mask>
<g mask="url(#mask0_482_1447)">
<path d="M91.8954 57.4794H89.8708V72H91.8954V57.4794ZM100.078 57.4794H98.0531V66.035L95.3754 57.4794H93.6338V72H95.6584V64.3805L98.0531 72H100.078V57.4794ZM101.819 57.4794V72H103.974C105.389 72 106.042 71.8041 106.652 71.1945C107.261 70.6067 107.566 69.7359 107.566 68.6474V60.832C107.566 59.7435 107.261 58.8727 106.652 58.2849C106.042 57.6753 105.389 57.4794 103.974 57.4794H101.819ZM103.843 70.106V59.3734H104.105C105.193 59.3734 105.541 59.7217 105.541 60.832V68.6474C105.541 69.7795 105.215 70.106 104.105 70.106H103.843ZM111.306 57.4794H109.281V68.3209C109.281 70.0407 109.346 70.4108 109.738 71.0421C110.217 71.7605 111.131 72.2177 112.155 72.2177C113.178 72.2177 114.092 71.7605 114.571 71.0421C114.963 70.4108 115.028 70.0407 115.028 68.3209V57.4794H113.004V69.1481C113.004 69.9754 112.764 70.3237 112.155 70.3237C111.567 70.3237 111.306 69.9754 111.306 69.1481V57.4794ZM116.566 67.7984C116.544 68.1467 116.544 68.2773 116.544 68.5821C116.544 69.8448 116.697 70.4543 117.175 71.1074C117.742 71.8694 118.503 72.2177 119.592 72.2177C121.486 72.2177 122.553 71.1292 122.553 69.1917C122.553 67.9508 122.03 66.4704 121.094 65.0989L120.071 63.6185C118.721 61.5939 118.634 61.398 118.634 60.5054C118.634 59.6346 118.939 59.1557 119.483 59.1557C119.94 59.1557 120.267 59.4822 120.332 60.07C120.376 60.3748 120.397 60.6361 120.397 61.3762L122.379 61.1803C122.379 59.983 122.379 59.9176 122.27 59.3734C121.987 58.0454 120.985 57.2617 119.614 57.2617C117.785 57.2617 116.631 58.4808 116.631 60.3966C116.631 61.681 117.045 62.6824 118.286 64.5547L119.287 66.035C120.289 67.363 120.528 67.929 120.528 68.8869C120.528 69.823 120.223 70.3237 119.614 70.3237C118.83 70.3237 118.569 69.8448 118.569 68.3426V67.7113L116.566 67.7984ZM125.445 72H127.469V59.3734H129.45V57.4794H123.551V59.3734H125.445V72ZM130.775 57.4794V72H132.799V65.8391C133.104 65.8173 133.169 65.8173 133.518 65.752L134.693 72H136.87L135.455 65.0554C136.282 63.9886 136.478 63.3355 136.478 61.5286C136.478 60.1571 136.239 59.1775 135.716 58.5026C135.129 57.7406 134.388 57.4794 132.756 57.4794H130.775ZM132.799 63.7927V59.3734H133.082C134.214 59.3734 134.497 59.7435 134.497 61.3109C134.497 62.6389 134.454 62.9872 134.301 63.2702C134.105 63.6403 133.735 63.7927 133.082 63.7927H132.799ZM140.431 57.4794H138.407V72H140.431V57.4794ZM142.17 57.4794V72H147.242V70.106H144.194V65.3384H146.197V63.4444H144.194V59.3734H147.068V57.4794H142.17ZM148.519 67.7984C148.498 68.1467 148.498 68.2773 148.498 68.5821C148.498 69.8448 148.65 70.4543 149.129 71.1074C149.695 71.8694 150.457 72.2177 151.545 72.2177C153.439 72.2177 154.506 71.1292 154.506 69.1917C154.506 67.9508 153.984 66.4704 153.048 65.0989L152.024 63.6185C150.675 61.5939 150.588 61.398 150.588 60.5054C150.588 59.6346 150.892 59.1557 151.437 59.1557C151.894 59.1557 152.22 59.4822 152.286 60.07C152.329 60.3748 152.351 60.6361 152.351 61.3762L154.332 61.1803C154.332 59.983 154.332 59.9176 154.223 59.3734C153.94 58.0454 152.939 57.2617 151.567 57.2617C149.738 57.2617 148.585 58.4808 148.585 60.3966C148.585 61.681 148.998 62.6824 150.239 64.5547L151.241 66.035C152.242 67.363 152.481 67.929 152.481 68.8869C152.481 69.823 152.177 70.3237 151.567 70.3237C150.783 70.3237 150.522 69.8448 150.522 68.3426V67.7113L148.519 67.7984ZM159.645 72H164.544V70.106H161.67V57.4794H159.645V72ZM166.582 72H168.607V59.3734H170.588V57.4794H164.688V59.3734H166.582V72ZM171.912 57.4794V72H174.067C175.483 72 176.136 71.8041 176.745 71.1945C177.355 70.6067 177.66 69.7359 177.66 68.6474V60.832C177.66 59.7435 177.355 58.8727 176.745 58.2849C176.136 57.6753 175.483 57.4794 174.067 57.4794H171.912ZM173.937 70.106V59.3734H174.198C175.287 59.3734 175.635 59.7217 175.635 60.832V68.6474C175.635 69.7795 175.308 70.106 174.198 70.106H173.937ZM179.378 72H181.403V69.823H179.378V72Z" fill="#9AC8F0"/>
<path d="M89.64 49H95.8214V14.8733H95.9502L101.101 49H107.025L112.176 14.8733H112.305V49H119.002V3.927H108.893L104.385 36.1864H104.257L99.7492 3.927H89.64V49ZM134.525 49.6439C141.479 49.6439 145.278 45.5229 145.278 38.3113V14.6157C145.278 7.40406 141.479 3.2831 134.525 3.2831C127.571 3.2831 123.772 7.40406 123.772 14.6157V38.3113C123.772 45.5229 127.571 49.6439 134.525 49.6439ZM134.525 43.2049C132.272 43.2049 130.855 41.9815 130.855 38.762V14.165C130.855 10.9455 132.272 9.7221 134.525 9.7221C136.779 9.7221 138.196 10.9455 138.196 14.165V38.762C138.196 41.9815 136.779 43.2049 134.525 43.2049ZM150.068 49H168.806V42.561H157.151V3.927H150.068V49ZM172.203 49H179.285V3.927H172.203V49Z" fill="#9AC8F0"/>
<mask id="mask1_482_1447" style="mask-type:alpha" maskUnits="userSpaceOnUse" x="2" y="0" width="79" height="73">
<path d="M33.8114 34.7604L33.8584 34.7608L33.9833 34.7619L33.9832 34.6369L33.9738 27.1854L33.9737 27.0604L33.8487 27.0593L33.6767 27.0579L33.5518 27.0569L33.5519 27.1819L33.5613 34.6334L33.6859 34.6344L33.6861 34.7594L33.6864 34.7594L33.8114 34.7604Z" fill="#5A5A5A" stroke="white" stroke-width="0.25"/>
<path d="M18.0336 60.5826L18.0338 60.7076L18.1588 60.7087L18.3312 60.7101L18.4562 60.7111L18.4561 60.5861L18.4282 38.3585L33.7638 27.461L38.8392 31.1455L38.9622 31.2348L39.0255 31.0979L39.1111 30.913L39.1543 30.8196L39.0703 30.7587L33.8361 26.9586L33.763 26.9056L33.6901 26.9575C28.4822 30.6671 23.2714 34.3698 18.0576 38.0657L18.0055 38.1027L18.0055 38.1669L18.0336 60.5826Z" fill="#5A5A5A" stroke="white" stroke-width="0.25"/>
<path d="M33.8744 49.7562L34.0296 49.7575L33.9476 49.5795L33.8618 49.393L33.7981 49.2547L33.6752 49.3423C26.755 54.2708 19.8314 59.1909 12.9045 64.1027L12.8524 64.1396L12.8524 64.2038L12.8619 71.7166L12.862 71.8416L12.987 71.8426L13.1583 71.8441L13.2833 71.8451L13.2831 71.7201L13.274 64.3948L33.8744 49.7562Z" fill="#5A5A5A" stroke="white" stroke-width="0.25"/>
<path d="M23.2349 71.8026L23.2351 71.9276L23.3601 71.9286L23.5323 71.93L23.6573 71.9311L23.6572 71.8061L23.6293 49.5784L38.9641 38.6807L43.9445 42.2961L43.9817 71.975L43.9819 72.1L44.1069 72.1011L44.2791 72.1025L44.4041 72.1035L44.404 71.9785L44.3665 42.1119L44.3664 42.0478L44.3143 42.0099C42.5546 40.7325 40.7954 39.4555 39.0365 38.179L38.9634 38.1259L38.8906 38.1779C33.6823 41.8877 28.4717 45.5904 23.2589 49.2861L23.2067 49.323L23.2068 49.3872L23.2349 71.8026Z" fill="#5A5A5A" stroke="white" stroke-width="0.25"/>
<path d="M39.0449 72.0588L39.0918 72.0592L39.2168 72.0602L39.2166 71.9352L39.1746 38.4048L39.1744 38.2798L39.0494 38.2788L38.8775 38.2774L38.7525 38.2763L38.7527 38.4013L38.7947 71.9317L38.9194 71.9328L38.9195 72.0578L38.9199 72.0578L39.0449 72.0588Z" fill="#5A5A5A" stroke="white" stroke-width="0.25"/>
<path d="M28.3883 45.7668L28.3885 45.8918L28.5135 45.8928L28.5143 45.8928L28.6864 45.8942L28.8114 45.8953L28.8113 45.7703L28.8021 38.4448L49.3187 23.8648L54.2988 27.4805L54.3173 42.2569L54.3175 42.3819L54.4425 42.3829L54.6148 42.3844L54.7398 42.3854L54.7396 42.2604L54.7208 27.2959L54.7208 27.2317L54.6685 27.1939C52.9085 25.9187 51.1494 24.6417 49.3911 23.3629L49.318 23.3097L49.2451 23.3617C42.3108 28.3007 35.3728 33.231 28.431 38.1524L28.3788 38.1894L28.3789 38.2536L28.3883 45.7668Z" fill="#5A5A5A" stroke="white" stroke-width="0.25"/>
<path d="M23.5762 42.094L23.5759 41.8502L23.5009 41.9036L23.4785 41.8553L23.4149 41.7174L23.2921 41.8046L18.1105 45.4872L18.0267 45.5467L18.0702 45.6408L18.1562 45.8272L18.2199 45.9651L18.3427 45.8778L23.5242 42.195L23.4684 42.117L23.5762 42.0942L23.5762 42.094Z" fill="#5A5A5A" stroke="white" stroke-width="0.25"/>
<path d="M36.4753 29.263L36.5592 29.2034L36.5155 29.1092L36.4288 28.9224L36.365 28.7849L36.2424 28.872L33.6518 30.7137L33.5679 30.7734L33.6116 30.8675L33.6981 31.0541L33.7619 31.1916L33.8845 31.1045L36.4753 29.263Z" fill="#5A5A5A" stroke="white" stroke-width="0.25"/>
<path d="M43.9966 49.5293L43.9969 49.773L44.0721 49.7196L44.0942 49.7675L44.1578 49.9055L44.2807 49.8182L59.7107 38.853L64.691 42.4683L64.7282 72.1469L64.7284 72.2719L64.8534 72.2729L65.0256 72.2743L65.1506 72.2754L65.1505 72.1504L65.113 42.2839L65.1129 42.2198L65.0608 42.182C63.3012 40.9051 61.5419 39.628 59.783 38.3506L59.7101 38.2976L59.6372 38.3494L44.0485 49.4282L44.104 49.5058L43.9966 49.5285L43.9966 49.5293Z" fill="#5A5A5A" stroke="white" stroke-width="0.25"/>
<path d="M49.1354 45.9391L49.1355 46.0641L49.2605 46.0652L49.4328 46.0666L49.5578 46.0676L49.5576 45.9426L49.5296 23.5892L49.5294 23.4642L49.4044 23.4631L49.2322 23.4617L49.1072 23.4607L49.1073 23.5857L49.1354 45.9391Z" fill="#5A5A5A" stroke="white" stroke-width="0.25"/>
<path d="M59.5413 72.1042L59.5414 72.2292L59.6664 72.2302L59.8387 72.2317L59.9637 72.2327L59.9635 72.1077L59.9215 38.5777L59.9213 38.4527L59.7963 38.4517L59.624 38.4502L59.4991 38.4492L59.4992 38.5742L59.5413 72.1042Z" fill="#5A5A5A" stroke="white" stroke-width="0.25"/>
<path d="M44.2806 49.819L44.5958 49.5951L44.2873 49.5925L44.235 49.4789L44.1714 49.3408L44.0485 49.4282L38.8663 53.1103L38.7826 53.1698L38.8259 53.2638L38.9119 53.4506L38.9755 53.5886L39.0984 53.5013L44.2806 49.819Z" fill="#5A5A5A" stroke="white" stroke-width="0.25"/>
<path d="M39.0985 53.5012L39.1823 53.4416L39.1388 53.3475L39.0527 53.1614L38.9891 53.0236L38.8663 53.1108L28.5025 60.4765L28.4185 60.5362L28.4623 60.6304L28.5484 60.8155L28.6122 60.9529L28.7347 60.8659L39.0985 53.5012Z" fill="#5A5A5A" stroke="white" stroke-width="0.25"/>
<path d="M44.2619 34.9162L44.577 34.6923L44.2685 34.6897L44.2162 34.5763L44.1526 34.4383L44.0298 34.5256L38.8475 38.2077L38.7638 38.2672L38.8071 38.3613L38.8932 38.5478L38.9568 38.6858L39.0796 38.5985L44.2619 34.9162Z" fill="#5A5A5A" stroke="white" stroke-width="0.25"/>
<path d="M44.0584 57.2677L44.1814 57.357L44.2447 57.2201L44.3303 57.0352L44.3735 56.9418L44.2895 56.8809L39.0979 53.1126L38.975 53.0233L38.9117 53.16L38.8261 53.3448L38.7828 53.4382L38.8668 53.4991L44.0584 57.2677Z" fill="#5A5A5A" stroke="white" stroke-width="0.25"/>
<path d="M54.6538 49.9054L54.7375 49.8459L54.6941 49.7518L54.6081 49.5653L54.5445 49.4273L54.4216 49.5146L44.058 56.8793L43.9743 56.9387L44.0176 57.0328L44.1035 57.2192L44.1671 57.3572L44.29 57.2699L54.6538 49.9054Z" fill="#5A5A5A" stroke="white" stroke-width="0.25"/>
<path d="M43.9257 27.2682L43.9258 27.3932L44.0508 27.3943L44.2231 27.3957L44.3481 27.3967L44.3479 27.2717L44.3387 19.9467L70.038 1.6841L75.018 5.29964L75.102 72.2342L75.1022 72.3592L75.2272 72.3603L75.3991 72.3617L75.5241 72.3627L75.5239 72.2377L75.4397 5.11567L75.4397 5.0516L75.3876 5.01376C73.629 3.73539 71.8698 2.45818 70.1099 1.18212L70.0368 1.12915L69.964 1.18103C61.3035 7.34975 52.6383 13.5074 43.9683 19.6541L43.9162 19.6911L43.9162 19.7553L43.9257 27.2682Z" fill="#5A5A5A" stroke="white" stroke-width="0.25"/>
<path d="M80.4068 9.23056L80.4588 9.19359L80.4587 9.12947L80.4584 8.88214L80.4581 8.63846L80.2604 8.77897L75.1216 12.4307L75.0378 12.4903L75.0812 12.5844L75.1673 12.7707L75.2309 12.9086L75.3537 12.8213L80.4068 9.23056Z" fill="#5A5A5A" stroke="white" stroke-width="0.25"/>
<path d="M69.9151 72.1906L69.9152 72.3156L70.0402 72.3166L70.2121 72.318L70.3371 72.3191L70.337 72.1941L70.2482 1.40827L70.248 1.28327L70.123 1.28223L69.9511 1.2808L69.8261 1.27976L69.8263 1.40476L69.9151 72.1906Z" fill="#5A5A5A" stroke="white" stroke-width="0.25"/>
<path d="M64.9902 20.1863L65.03 20.158L65.0397 20.11L65.0398 20.1092L65.0479 20.069L65.0305 20.0316L64.9445 19.8464L64.8807 19.7091L64.7582 19.7961L54.3939 27.1607L54.3101 27.2203L54.3536 27.3144L54.4396 27.5006L54.5033 27.6384L54.626 27.5512L64.9902 20.1863Z" fill="#5A5A5A" stroke="white" stroke-width="0.25"/>
<path d="M75.3539 12.8217L75.4377 12.7622L75.3942 12.6681L75.3082 12.4817L75.2445 12.3438L75.1218 12.4311L69.9399 16.1134L69.8561 16.1729L69.8995 16.267L69.9855 16.4536L70.0492 16.5915L70.172 16.5042L75.3539 12.8217Z" fill="#5A5A5A" stroke="white" stroke-width="0.25"/>
<path d="M75.1313 20.271L75.2887 20.3853L75.3239 20.2095L75.4037 20.0382L75.4473 19.9447L75.3631 19.8836L70.1717 16.1155L70.0491 16.0265L69.9855 16.1627L69.8992 16.3478L69.8555 16.4413L69.9397 16.5025L75.1313 20.271Z" fill="#5A5A5A" stroke="white" stroke-width="0.25"/>
<path d="M70.1627 9.05321L70.2147 9.01623L70.2146 8.95211L70.2146 8.95129L70.2146 8.92383L70.203 8.8988L70.117 8.71224L70.0534 8.57427L69.9305 8.66156L54.3843 19.709L54.3007 19.7684L54.3439 19.8625L54.43 20.0494L54.4935 20.1876L54.6165 20.1002L70.1627 9.05321Z" fill="#5A5A5A" stroke="white" stroke-width="0.25"/>
<path d="M75.1223 12.8196L75.2453 12.9089L75.3086 12.7721L75.3941 12.5872L75.4373 12.4938L75.3534 12.4329L70.1622 8.66432L70.0391 8.57499L69.9758 8.7119L69.8902 8.89704L69.8471 8.99039L69.931 9.0513L75.1223 12.8196Z" fill="#5A5A5A" stroke="white" stroke-width="0.25"/>
<path d="M75.3633 20.2725L75.4153 20.2355L75.4152 20.1714L75.4152 20.1706L75.4152 20.1431L75.4036 20.118L75.3175 19.9319L75.2539 19.7941L75.1311 19.8813L69.9492 23.5644L69.8654 23.624L69.9089 23.7181L69.9949 23.9044L70.0586 24.0423L70.1814 23.9551L75.3633 20.2725Z" fill="#5A5A5A" stroke="white" stroke-width="0.25"/>
<path d="M70.1814 23.955L70.2652 23.8955L70.2218 23.8014L70.1357 23.615L70.0721 23.4771L69.9493 23.5644L59.5851 30.9293L59.5014 30.9888L59.5448 31.0829L59.6307 31.269L59.6943 31.407L59.8171 31.3197L70.1814 23.955Z" fill="#5A5A5A" stroke="white" stroke-width="0.25"/>
<path d="M75.3445 5.37033L75.4283 5.31076L75.3848 5.21666L75.2988 5.0305L75.2351 4.8927L75.1124 4.97992L69.9305 8.66225L69.8467 8.72177L69.8901 8.81584L69.9762 9.0024L70.0398 9.14038L70.1626 9.05307L75.3445 5.37033Z" fill="#5A5A5A" stroke="white" stroke-width="0.25"/>
<path d="M75.3492 9.09633L75.433 9.03682L75.3896 8.94275L75.3036 8.75618L75.2399 8.61821L75.1171 8.7055L69.9352 12.3878L69.8514 12.4474L69.8948 12.5415L69.9809 12.7278L70.0445 12.8657L70.1673 12.7785L75.3492 9.09633Z" fill="#5A5A5A" stroke="white" stroke-width="0.25"/>
<path d="M75.1175 9.09426L75.2406 9.1836L75.3039 9.04668L75.3895 8.86154L75.4326 8.76819L75.3487 8.70728L70.1575 4.93874L70.0344 4.8494L69.9711 4.98631L69.8855 5.17145L69.8424 5.2648L69.9263 5.32571L75.1175 9.09426Z" fill="#5A5A5A" stroke="white" stroke-width="0.25"/>
<path d="M75.141 27.7213L75.2639 27.8105L75.3273 27.6738L75.4128 27.4891L75.4561 27.3957L75.3721 27.3347L70.1809 23.5662L70.0579 23.4769L69.9945 23.6137L69.909 23.7986L69.8658 23.892L69.9497 23.953L75.141 27.7213Z" fill="#5A5A5A" stroke="white" stroke-width="0.25"/>
<path d="M75.3679 23.998L75.4517 23.9384L75.4083 23.8444L75.3222 23.658L75.2586 23.5201L75.1358 23.6074L69.9539 27.2897L69.8701 27.3493L69.9136 27.4434L69.9996 27.6295L70.0633 27.7673L70.186 27.6801L75.3679 23.998Z" fill="#5A5A5A" stroke="white" stroke-width="0.25"/>
<path d="M75.3726 27.7234L75.4564 27.6638L75.413 27.5697L75.3269 27.3835L75.2632 27.2457L75.1405 27.333L69.9586 31.0157L69.8748 31.0753L69.9183 31.1694L70.0043 31.3555L70.068 31.4933L70.1907 31.4061L75.3726 27.7234Z" fill="#5A5A5A" stroke="white" stroke-width="0.25"/>
<path d="M75.15 35.1731L75.2728 35.2622L75.3362 35.1258L75.4223 34.9409L75.4658 34.8474L75.3817 34.7864L70.1905 31.0176L70.068 30.9287L70.0043 31.0647L69.9179 31.2494L69.8742 31.343L69.9585 31.4042L75.15 35.1731Z" fill="#5A5A5A" stroke="white" stroke-width="0.25"/>
<path d="M75.1457 31.4473L75.2686 31.5366L75.332 31.3998L75.4175 31.2151L75.4608 31.1217L75.3768 31.0607L70.1856 27.2918L70.0626 27.2025L69.9993 27.3392L69.9137 27.524L69.8704 27.6174L69.9544 27.6783L75.1457 31.4473Z" fill="#5A5A5A" stroke="white" stroke-width="0.25"/>
<path d="M75.3818 35.1752L75.4656 35.1157L75.4222 35.0216L75.3362 34.8352L75.2725 34.6974L75.1497 34.7846L69.9678 38.4667L69.8841 38.5262L69.9274 38.6203L70.0135 38.8069L70.0771 38.9448L70.1999 38.8576L75.3818 35.1752Z" fill="#5A5A5A" stroke="white" stroke-width="0.25"/>
<path d="M75.1596 42.6245L75.2826 42.7138L75.3459 42.577L75.4315 42.3921L75.4747 42.2987L75.3907 42.2378L70.1995 38.469L70.0764 38.3797L70.0131 38.5166L69.9276 38.7017L69.8844 38.7951L69.9683 38.856L75.1596 42.6245Z" fill="#5A5A5A" stroke="white" stroke-width="0.25"/>
<path d="M75.3865 38.9004L75.4704 38.8408L75.4268 38.7467L75.3408 38.5607L75.2771 38.423L75.1544 38.5102L69.9725 42.1927L69.8887 42.2523L69.9322 42.3464L70.0182 42.5327L70.0819 42.6706L70.2047 42.5833L75.3865 38.9004Z" fill="#5A5A5A" stroke="white" stroke-width="0.25"/>
<path d="M75.1643 46.3499L75.2199 46.2727L75.3506 46.3025L75.4362 46.1171L75.4793 46.0238L75.3954 45.9629L70.2042 42.1946L70.0812 42.1053L70.0179 42.2421L69.9323 42.4271L69.8891 42.5204L69.973 42.5814L75.1643 46.3499Z" fill="#5A5A5A" stroke="white" stroke-width="0.25"/>
<path d="M75.3959 46.3519L75.4796 46.2924L75.4363 46.1984L75.3503 46.0116L75.2867 45.8735L75.1638 45.9609L69.9819 49.6436L69.8981 49.7032L69.9416 49.7973L70.0276 49.9835L70.0913 50.1212L70.214 50.034L75.3959 46.3519Z" fill="#5A5A5A" stroke="white" stroke-width="0.25"/>
<path d="M75.1736 53.801L75.2967 53.8904L75.36 53.7535L75.4456 53.5683L75.4887 53.475L75.4048 53.4141L70.2136 49.6455L70.0906 49.5563L70.0273 49.693L69.9417 49.8777L69.8984 49.9711L69.9824 50.0321L75.1736 53.801Z" fill="#5A5A5A" stroke="white" stroke-width="0.25"/>
<path d="M75.4053 53.8026L75.4573 53.7656L75.4572 53.7015L75.4572 53.7013L75.4572 53.6738L75.4457 53.6488L75.3596 53.4622L75.296 53.3243L75.1731 53.4116L69.9912 57.0941L69.9075 57.1536L69.9509 57.2477L70.0369 57.4341L70.1006 57.572L70.2234 57.4847L75.4053 53.8026Z" fill="#5A5A5A" stroke="white" stroke-width="0.25"/>
<path d="M75.4522 49.9755L75.4519 49.7318L75.377 49.785L75.3546 49.7365L75.291 49.5984L75.1681 49.6857L69.9866 53.3685L69.9028 53.428L69.9462 53.5221L70.0322 53.7086L70.0959 53.8466L70.2187 53.7593L75.4003 50.0765L75.3444 49.9984L75.4522 49.9757L75.4522 49.9755Z" fill="#5A5A5A" stroke="white" stroke-width="0.25"/>
<path d="M75.41 57.5287L75.4938 57.4692L75.4504 57.3751L75.3643 57.1888L75.3007 57.0509L75.1779 57.1381L69.996 60.8202L69.9122 60.8798L69.9556 60.9739L70.0417 61.1602L70.1053 61.2981L70.2281 61.2109L75.41 57.5287Z" fill="#5A5A5A" stroke="white" stroke-width="0.25"/>
<path d="M75.3568 64.9566L75.4414 64.8542L75.417 64.8365L75.4595 64.7453L75.503 64.6518L75.4189 64.5908L70.2276 60.8218L70.105 60.7328L70.0415 60.8689L69.9552 61.0537L69.9116 61.1472L69.9958 61.2084L75.1874 64.9773L75.2508 64.8894L75.3567 64.9568L75.3568 64.9566Z" fill="#5A5A5A" stroke="white" stroke-width="0.25"/>
<path d="M75.4194 64.979L75.5032 64.9194L75.4597 64.8253L75.3737 64.6391L75.31 64.5013L75.1873 64.5886L70.0054 68.2707L69.9216 68.3302L69.965 68.4242L70.051 68.611L70.1146 68.7491L70.2375 68.6617L75.4194 64.979Z" fill="#5A5A5A" stroke="white" stroke-width="0.25"/>
<path d="M49.2119 30.843L49.1282 30.9024L49.1715 30.9965L49.2574 31.183L49.321 31.3211L49.4439 31.2338L54.6258 27.5512L54.7096 27.4917L54.6661 27.3976L54.5801 27.2114L54.5164 27.0736L54.3937 27.1608L49.2119 30.843Z" fill="#5A5A5A" stroke="white" stroke-width="0.25"/>
<path d="M54.4035 35.0005L54.5265 35.0898L54.5898 34.953L54.6754 34.768L54.7186 34.6747L54.6347 34.6137L49.4434 30.845L49.3204 30.7556L49.2571 30.8926L49.1715 31.0777L49.1284 31.171L49.2123 31.232L54.4035 35.0005Z" fill="#5A5A5A" stroke="white" stroke-width="0.25"/>
<path d="M49.2166 34.5687L49.1329 34.6282L49.1762 34.7223L49.2621 34.9086L49.3257 35.0466L49.4486 34.9593L54.6305 31.277L54.7142 31.2175L54.6708 31.1234L54.5848 30.9368L54.5212 30.7989L54.3983 30.8862L49.2166 34.5687Z" fill="#5A5A5A" stroke="white" stroke-width="0.25"/>
<path d="M54.4082 38.7261L54.4639 38.649L54.5945 38.6788L54.6801 38.4936L54.7233 38.4003L54.6394 38.3394L49.4481 34.5708L49.3251 34.4815L49.2618 34.6183L49.1762 34.8033L49.133 34.8966L49.217 34.9576L54.4082 38.7261Z" fill="#5A5A5A" stroke="white" stroke-width="0.25"/>
<path d="M51.8119 36.4533L51.7599 36.4902L51.76 36.5544L51.76 36.5552L51.76 36.5828L51.7717 36.608L51.8577 36.7931L51.9216 36.9305L52.044 36.8435L54.6352 35.0026L54.719 34.9431L54.6755 34.849L54.5895 34.6626L54.5258 34.5247L54.403 34.612L51.8119 36.4533Z" fill="#5A5A5A" stroke="white" stroke-width="0.25"/>
<path d="M51.8171 40.5676L52.0152 40.7114L52.0149 40.4938L52.0889 40.335L52.1324 40.2415L52.0483 40.1804L49.453 38.2965L49.3299 38.2071L49.2666 38.3441L49.1811 38.5292L49.1379 38.6225L49.2218 38.6834L51.8171 40.5676Z" fill="#5A5A5A" stroke="white" stroke-width="0.25"/>
<path d="M49.2245 42.0198L49.0214 42.1641L49.2084 42.2243L49.2721 42.3606L49.336 42.4976L49.4583 42.4107L54.6403 38.7282L54.7243 38.6685L54.6806 38.5743L54.594 38.3878L54.5303 38.2503L54.4077 38.3373L49.2245 42.0198Z" fill="#5A5A5A" stroke="white" stroke-width="0.25"/>
<path d="M59.6038 45.8317L59.5201 45.8911L59.5633 45.9851L59.6492 46.1719L59.7128 46.3101L59.8357 46.2227L65.0181 42.54L65.1021 42.4803L65.0583 42.386L64.9723 42.2009L64.9085 42.0636L64.786 42.1506L59.6038 45.8317Z" fill="#5A5A5A" stroke="white" stroke-width="0.25"/>
<path d="M64.7958 49.9892L64.9189 50.0785L64.9822 49.9416L65.0677 49.7565L65.1109 49.6631L65.027 49.6022L59.8353 45.8333L59.712 45.7438L59.6488 45.881L59.5634 46.0663L59.5205 46.1596L59.6043 46.2205L64.7958 49.9892Z" fill="#5A5A5A" stroke="white" stroke-width="0.25"/>
<path d="M59.6131 53.2826L59.5295 53.3421L59.5727 53.4361L59.6586 53.6229L59.7221 53.7611L59.8451 53.6737L65.0275 49.9914L65.1113 49.9318L65.0679 49.8378L64.9818 49.6512L64.9182 49.5132L64.7954 49.6005L59.6131 53.2826Z" fill="#5A5A5A" stroke="white" stroke-width="0.25"/>
<path d="M59.6084 49.5572L59.5684 49.5856L59.5589 49.6339L59.5587 49.6347L59.5508 49.6747L59.568 49.7119L59.6539 49.897L59.7177 50.0345L59.8402 49.9474L65.0223 46.2655L65.106 46.206L65.0627 46.112L64.9769 45.9253L64.9133 45.7871L64.7903 45.8745L59.6084 49.5572Z" fill="#5A5A5A" stroke="white" stroke-width="0.25"/>
<path d="M59.6225 60.7336L59.5705 60.7705L59.5706 60.8347L59.5706 60.8361L59.5706 60.8637L59.5823 60.8888L59.6681 61.074L59.7319 61.2115L59.8545 61.1244L65.0369 57.4421L65.1207 57.3825L65.0772 57.2884L64.9912 57.1021L64.9275 56.9642L64.8047 57.0514L59.6225 60.7336Z" fill="#5A5A5A" stroke="white" stroke-width="0.25"/>
<path d="M64.8052 57.4402L65.0033 57.584L65.003 57.3676L65.0771 57.2075L65.1203 57.1141L65.0364 57.0532L59.8446 53.2844L59.7214 53.195L59.6582 53.3321L59.5728 53.5175L59.5298 53.6108L59.6136 53.6716L64.8052 57.4402Z" fill="#5A5A5A" stroke="white" stroke-width="0.25"/>
<path d="M64.8099 61.1656L65.008 61.3094L65.0077 61.0919L65.0817 60.9332L65.1252 60.8397L65.0411 60.7786L59.8493 57.0103L59.7261 56.9208L59.6629 57.058L59.5775 57.2433L59.5345 57.3366L59.6183 57.3975L64.8099 61.1656Z" fill="#5A5A5A" stroke="white" stroke-width="0.25"/>
<path d="M59.5753 64.561L59.5756 64.8047L59.651 64.7511L59.6727 64.7983L59.7364 64.9362L59.8592 64.8489L65.0416 61.1662L65.1256 61.1065L65.0818 61.0123L64.9957 60.8271L64.9319 60.6898L64.8094 60.7768L59.6272 64.4599L59.6823 64.537L59.5753 64.5596L59.5753 64.561Z" fill="#5A5A5A" stroke="white" stroke-width="0.25"/>
<path d="M64.8144 64.8913L64.8696 64.8149L65.0007 64.8449L65.0863 64.6601L65.1296 64.5668L65.0456 64.5058L59.8539 60.7368L59.7311 60.6477L59.6676 60.7842L59.5822 60.9679L59.5388 61.0613L59.6229 61.1224L64.8144 64.8913Z" fill="#5A5A5A" stroke="white" stroke-width="0.25"/>
<path d="M59.6319 68.1854L59.5481 68.245L59.5915 68.339L59.6774 68.5252L59.7411 68.6631L59.8639 68.5759L65.0463 64.8935L65.1301 64.834L65.0866 64.7398L65.0006 64.5537L64.9369 64.4159L64.8141 64.5031L59.6319 68.1854Z" fill="#5A5A5A" stroke="white" stroke-width="0.25"/>
<path d="M64.8192 68.6176L65.0173 68.7614L65.017 68.545L65.0911 68.3847L65.1343 68.2913L65.0504 68.2304L62.4546 66.346L62.3315 66.2567L62.2683 66.3936L62.1827 66.5787L62.1395 66.6721L62.2234 66.733L64.8192 68.6176Z" fill="#5A5A5A" stroke="white" stroke-width="0.25"/>
<path d="M75.4147 61.2538L75.4984 61.1943L75.4551 61.1002L75.369 60.9137L75.3054 60.7757L75.1825 60.863L70.0006 64.5455L69.9169 64.6051L69.9603 64.6991L70.0463 64.8855L70.11 65.0234L70.2328 64.9361L75.4147 61.2538Z" fill="#5A5A5A" stroke="white" stroke-width="0.25"/>
<path d="M38.8569 45.659L38.7732 45.7185L38.8165 45.8126L38.9024 45.9989L38.966 46.137L39.0889 46.0497L44.2711 42.3673L44.3548 42.3079L44.3115 42.2138L44.2256 42.0273L44.1621 41.8891L44.0391 41.9765L38.8569 45.659Z" fill="#5A5A5A" stroke="white" stroke-width="0.25"/>
<path d="M38.8527 42.3223L44.0019 46.0605L44.0587 46.4182L44.2309 46.0446L44.3163 45.8593L44.3593 45.766L44.2755 45.7051L39.0839 41.9368L38.9612 41.8477L38.8977 41.984L38.8121 42.1677L38.7686 42.2612L38.8527 42.3223Z" fill="#5A5A5A" stroke="white" stroke-width="0.25"/>
<path d="M38.8616 49.3851L38.7779 49.4445L38.8212 49.5386L38.9071 49.7251L38.9706 49.8632L39.0936 49.7759L44.2758 46.0934L44.3594 46.0339L44.3162 45.9399L44.2304 45.7531L44.1668 45.6149L44.0438 45.7023L38.8616 49.3851Z" fill="#5A5A5A" stroke="white" stroke-width="0.25"/>
<path d="M44.049 49.8171L44.172 49.9064L44.2353 49.7695L44.3209 49.5844L44.364 49.491L44.2801 49.4301L39.0886 45.6611L38.9654 45.5718L38.9022 45.7088L38.8166 45.8941L38.7735 45.9874L38.8574 46.0483L44.049 49.8171Z" fill="#5A5A5A" stroke="white" stroke-width="0.25"/>
<path d="M38.8757 60.5615L38.8306 60.5935L38.8245 60.6486L38.8243 60.65L38.8204 60.6849L38.8353 60.7168L38.9213 60.9019L38.9852 61.0393L39.1076 60.9523L44.2899 57.27L44.3736 57.2105L44.3303 57.1164L44.2444 56.93L44.1808 56.792L44.0579 56.8793L38.8757 60.5615Z" fill="#5A5A5A" stroke="white" stroke-width="0.25"/>
<path d="M41.4715 62.8349L41.5265 62.7585L41.6577 62.7886L41.7439 62.6035L41.7875 62.51L41.7033 62.4489L39.1079 60.5645L38.9857 60.4759L38.9219 60.6113L38.8353 60.795L38.7912 60.8887L38.8757 60.9501L41.4715 62.8349Z" fill="#5A5A5A" stroke="white" stroke-width="0.25"/>
<path d="M38.8798 64.2873L38.7956 64.3472L38.8397 64.4415L38.9268 64.6277L38.9908 64.7646L39.113 64.6778L44.2945 60.995L44.3783 60.9354L44.3349 60.8413L44.2487 60.6548L44.185 60.517L44.0622 60.6042L38.8798 64.2873Z" fill="#5A5A5A" stroke="white" stroke-width="0.25"/>
<path d="M38.885 68.0128L38.8013 68.0723L38.8446 68.1663L38.9305 68.3529L38.9941 68.491L39.117 68.4037L44.2992 64.7209L44.383 64.6614L44.3396 64.5673L44.2537 64.3812L44.1901 64.2432L44.0673 64.3305L38.885 68.0128Z" fill="#5A5A5A" stroke="white" stroke-width="0.25"/>
<path d="M2.73776 71.7572L2.78438 71.7576L2.90937 71.7586L2.90922 71.6336L2.89068 56.8562L18.2263 45.9588L23.3013 49.643L23.424 49.7321L23.4875 49.5958L23.5731 49.4121L23.6166 49.3186L23.5325 49.2575L18.2986 45.4574L18.2255 45.4044L18.1526 45.4563C12.9446 49.166 7.734 52.8688 2.52091 56.5645L2.46876 56.6015L2.46884 56.6657L2.48761 71.6301L2.61195 71.6312L2.6121 71.7562L2.61277 71.7562L2.73776 71.7572Z" fill="#5A5A5A" stroke="white" stroke-width="0.25"/>
<path d="M18.068 53.039L18.0683 53.2827L18.1435 53.2293L18.1656 53.2772L18.2292 53.4153L18.3521 53.3279L23.5336 49.6452L23.6176 49.5855L23.5739 49.4913L23.4878 49.3061L23.424 49.1688L23.3015 49.2558L18.1199 52.9379L18.1753 53.0153L18.068 53.038L18.068 53.039Z" fill="#5A5A5A" stroke="white" stroke-width="0.25"/>
<path d="M23.3113 57.0952L23.5094 57.239L23.5092 57.0226L23.5832 56.8625L23.6264 56.7692L23.5425 56.7082L18.3516 52.9395L18.2285 52.8501L18.1652 52.9871L18.0796 53.1724L18.0366 53.2658L18.1204 53.3267L23.3113 57.0952Z" fill="#5A5A5A" stroke="white" stroke-width="0.25"/>
<path d="M18.1246 56.6634L18.0726 56.7004L18.0727 56.7645L18.0727 56.7647L18.0727 56.7922L18.0843 56.8173L18.1703 57.0036L18.234 57.1415L18.3567 57.0543L23.5383 53.3719L23.622 53.3124L23.5787 53.2184L23.4927 53.0316L23.4291 52.8936L23.3062 52.9809L18.1246 56.6634Z" fill="#5A5A5A" stroke="white" stroke-width="0.25"/>
<path d="M18.3469 49.2148L18.2917 49.2913L18.1607 49.2612L18.0745 49.4463L18.0309 49.5398L18.1151 49.6009L20.7109 51.4851L20.8332 51.5739L20.8969 51.4382L20.9831 51.2545L21.0271 51.1608L20.9427 51.0996L18.3469 49.2148Z" fill="#5A5A5A" stroke="white" stroke-width="0.25"/>
<path d="M13.1697 57.0109L13.4848 56.787L13.1763 56.7845L13.1239 56.6709L13.0602 56.533L12.9374 56.6203L2.57362 63.985L2.48983 64.0445L2.53327 64.1386L2.61931 64.325L2.68297 64.4628L2.80575 64.3756L13.1697 57.0109Z" fill="#5A5A5A" stroke="white" stroke-width="0.25"/>
<path d="M23.553 64.5486L23.6371 64.4888L23.5932 64.3945L23.5065 64.2084L23.4426 64.0712L23.3202 64.1581L20.7291 65.999L20.6451 66.0587L20.6889 66.1529L20.7756 66.3395L20.8394 66.4769L20.9619 66.3898L23.553 64.5486Z" fill="#5A5A5A" stroke="white" stroke-width="0.25"/>
<path d="M59.8684 53.6522L59.7874 53.5648L59.8854 53.5205L59.7996 53.3337L59.736 53.1955L59.613 53.2829L49.2492 60.6476L49.1655 60.7071L49.2089 60.8011L49.2949 60.9877L49.3585 61.1257L49.4814 61.0384L59.722 53.7613L59.7417 53.8042L59.8683 53.6524L59.8684 53.6522Z" fill="#5A5A5A" stroke="white" stroke-width="0.25"/>
<path d="M59.8594 64.8503L60.1745 64.6264L59.8657 64.6238L59.8129 64.5102L59.7491 64.3729L59.6266 64.4599L57.0358 66.3007L56.9519 66.3604L56.9955 66.4545L57.0819 66.6411L57.1456 66.7787L57.2683 66.6916L59.8594 64.8503Z" fill="#5A5A5A" stroke="white" stroke-width="0.25"/>
<path d="M39.1085 60.952L39.1679 60.9098L39.1597 60.8371L39.1595 60.8356L39.1572 60.815L39.1483 60.7962L39.0613 60.611L38.9971 60.4745L38.8752 60.5612L36.2846 62.4029L36.2006 62.4626L36.2444 62.5568L36.3311 62.7434L36.3949 62.8808L36.5174 62.7937L39.1085 60.952Z" fill="#5A5A5A" stroke="white" stroke-width="0.25"/>
<path d="M49.449 34.9596L49.764 34.7357L49.4546 34.7332L49.4014 34.6191L49.3374 34.4821L49.2151 34.569L46.625 36.4105L46.541 36.4702L46.5849 36.5645L46.6716 36.7508L46.7354 36.8881L46.8578 36.8011L49.449 34.9596Z" fill="#5A5A5A" stroke="white" stroke-width="0.25"/>
<path d="M70.1906 31.406L70.2748 31.3462L70.2308 31.2519L70.1439 31.0657L70.0799 30.9286L69.9577 31.0156L67.3669 32.857L67.2829 32.9167L67.3267 33.011L67.4132 33.1971L67.477 33.3345L67.5995 33.2474L70.1906 31.406Z" fill="#5A5A5A" stroke="white" stroke-width="0.25"/>
</mask>
<g mask="url(#mask1_482_1447)">
<g filter="url(#filter0_ii_482_1447)">
<rect width="101.879" height="108.843" rx="50.9394" transform="matrix(-0.00665778 -0.999978 -1 5.32109e-05 93.1963 86.3972)" fill="url(#paint0_linear_482_1447)"/>
</g>
</g>
</g>
<defs>
<filter id="filter0_ii_482_1447" x="-15.9865" y="-17.7984" width="108.845" height="106.521" filterUnits="userSpaceOnUse" color-interpolation-filters="sRGB">
<feFlood flood-opacity="0" result="BackgroundImageFix"/>
<feBlend mode="normal" in="SourceGraphic" in2="BackgroundImageFix" result="shape"/>
<feColorMatrix in="SourceAlpha" type="matrix" values="0 0 0 0 0 0 0 0 0 0 0 0 0 0 0 0 0 0 127 0" result="hardAlpha"/>
<feOffset dy="4.64362"/>
<feGaussianBlur stdDeviation="1.1609"/>
<feComposite in2="hardAlpha" operator="arithmetic" k2="-1" k3="1"/>
<feColorMatrix type="matrix" values="0 0 0 0 1 0 0 0 0 1 0 0 0 0 1 0 0 0 0.4 0"/>
<feBlend mode="normal" in2="shape" result="effect1_innerShadow_482_1447"/>
<feColorMatrix in="SourceAlpha" type="matrix" values="0 0 0 0 0 0 0 0 0 0 0 0 0 0 0 0 0 0 127 0" result="hardAlpha"/>
<feOffset dy="-4.64362"/>
<feGaussianBlur stdDeviation="1.1609"/>
<feComposite in2="hardAlpha" operator="arithmetic" k2="-1" k3="1"/>
<feColorMatrix type="matrix" values="0 0 0 0 0 0 0 0 0 0 0 0 0 0 0 0 0 0 0.5 0"/>
<feBlend mode="normal" in2="effect1_innerShadow_482_1447" result="effect2_innerShadow_482_1447"/>
</filter>
<linearGradient id="paint0_linear_482_1447" x1="1.37057" y1="13.6053" x2="85.5232" y2="16.3913" gradientUnits="userSpaceOnUse">
<stop offset="0.15625" stop-color="#5E98CB"/>
<stop offset="0.850571" stop-color="white"/>
</linearGradient>
</defs>
</svg>
