<svg width="366" height="149" viewBox="0 0 366 149" fill="none" xmlns="http://www.w3.org/2000/svg">
<mask id="mask0_482_1447" style="mask-type:alpha" maskUnits="userSpaceOnUse" x="-1" y="0" width="368" height="150">
<rect x="-0.25" y="0.75" width="366.5" height="148.5" fill="#262A36" stroke="white" stroke-width="0.5"/>
</mask>
<g mask="url(#mask0_482_1447)">
<path d="M183.791 113.959V143H179.742V113.959H183.791ZM200.155 113.959V143H196.106L191.317 127.761V143H187.268V113.959H190.751L196.106 131.07V113.959H200.155ZM203.638 113.959H207.948C210.778 113.959 212.084 114.351 213.303 115.57C214.523 116.745 215.132 118.487 215.132 120.664V136.295C215.132 138.472 214.523 140.213 213.303 141.389C212.084 142.608 210.778 143 207.948 143H203.638V113.959ZM207.687 139.212H208.209C210.43 139.212 211.083 138.559 211.083 136.295V120.664C211.083 118.443 210.386 117.747 208.209 117.747H207.687V139.212ZM222.611 113.959V137.296C222.611 138.951 223.134 139.647 224.309 139.647C225.528 139.647 226.007 138.951 226.007 137.296V113.959H230.056V135.642C230.056 139.081 229.926 139.822 229.142 141.084C228.184 142.521 226.356 143.435 224.309 143.435C222.263 143.435 220.434 142.521 219.476 141.084C218.693 139.822 218.562 139.081 218.562 135.642V113.959H222.611ZM233.132 134.597L237.138 134.423V135.685C237.138 138.69 237.66 139.647 239.227 139.647C240.447 139.647 241.056 138.646 241.056 136.774C241.056 134.858 240.577 133.726 238.574 131.07L236.572 128.109C234.09 124.365 233.262 122.362 233.262 119.793C233.262 115.962 235.57 113.523 239.227 113.523C241.97 113.523 243.973 115.091 244.539 117.747C244.757 118.835 244.757 118.966 244.757 121.361L240.795 121.752C240.795 120.272 240.751 119.75 240.664 119.14C240.534 117.964 239.881 117.311 238.966 117.311C237.878 117.311 237.268 118.269 237.268 120.011C237.268 121.796 237.442 122.188 240.142 126.237L242.188 129.198C244.06 131.941 245.105 134.902 245.105 137.383C245.105 141.258 242.972 143.435 239.184 143.435C237.007 143.435 235.483 142.739 234.351 141.215C233.393 139.909 233.088 138.69 233.088 136.164C233.088 135.555 233.088 135.293 233.132 134.597ZM250.889 143V117.747H247.101V113.959H258.901V117.747H254.939V143H250.889ZM261.549 113.959H265.511C268.777 113.959 270.257 114.481 271.433 116.005C272.478 117.355 272.957 119.314 272.957 122.057C272.957 125.671 272.565 126.977 270.91 129.111L273.74 143H269.386L267.035 130.504C266.339 130.635 266.208 130.635 265.598 130.678V143H261.549V113.959ZM265.598 126.585H266.164C267.471 126.585 268.211 126.281 268.603 125.54C268.907 124.974 268.995 124.278 268.995 121.622C268.995 118.487 268.428 117.747 266.164 117.747H265.598V126.585ZM280.863 113.959V143H276.814V113.959H280.863ZM284.34 113.959H294.136V117.747H288.389V125.889H292.395V129.677H288.389V139.212H294.484V143H284.34V113.959ZM297.039 134.597L301.044 134.423V135.685C301.044 138.69 301.567 139.647 303.134 139.647C304.353 139.647 304.963 138.646 304.963 136.774C304.963 134.858 304.484 133.726 302.481 131.07L300.478 128.109C297.997 124.365 297.169 122.362 297.169 119.793C297.169 115.962 299.477 113.523 303.134 113.523C305.877 113.523 307.88 115.091 308.446 117.747C308.664 118.835 308.664 118.966 308.664 121.361L304.702 121.752C304.702 120.272 304.658 119.75 304.571 119.14C304.441 117.964 303.787 117.311 302.873 117.311C301.785 117.311 301.175 118.269 301.175 120.011C301.175 121.796 301.349 122.188 304.049 126.237L306.095 129.198C307.967 131.941 309.012 134.902 309.012 137.383C309.012 141.258 306.879 143.435 303.091 143.435C300.914 143.435 299.39 142.739 298.258 141.215C297.3 139.909 296.995 138.69 296.995 136.164C296.995 135.555 296.995 135.293 297.039 134.597ZM319.291 143V113.959H323.34V139.212H329.087V143H319.291ZM333.165 143V117.747H329.377V113.959H341.176V117.747H337.214V143H333.165ZM343.824 113.959H348.135C350.965 113.959 352.271 114.351 353.49 115.57C354.709 116.745 355.319 118.487 355.319 120.664V136.295C355.319 138.472 354.709 140.213 353.49 141.389C352.271 142.608 350.965 143 348.135 143H343.824V113.959ZM347.874 139.212H348.396C350.617 139.212 351.27 138.559 351.27 136.295V120.664C351.27 118.443 350.573 117.747 348.396 117.747H347.874V139.212ZM358.756 143V138.646H362.805V143H358.756Z" fill="#9AC8F0"/>
<path d="M198.726 13.854L209.028 77.8577H209.286L218.815 13.854H238.519V104H225.126V39.3524H224.868L215.338 104H201.945L191.643 40.2539H191.385V104H179.022V13.854H198.726ZM261.83 34.5876V83.2664C261.83 89.7054 264.663 92.1522 269.17 92.1522C273.678 92.1522 276.511 89.7054 276.511 83.2664V34.5876C276.511 28.1486 273.678 25.7018 269.17 25.7018C264.663 25.7018 261.83 28.1486 261.83 34.5876ZM247.664 82.365V35.489C247.664 21.0657 255.262 12.8238 269.17 12.8238C283.079 12.8238 290.677 21.0657 290.677 35.489V82.365C290.677 96.7883 283.079 105.03 269.17 105.03C255.262 105.03 247.664 96.7883 247.664 82.365ZM299.882 104V13.854H314.048V91.122H337.357V104H299.882ZM343.522 104V13.854H357.688V104H343.522Z" fill="#9AC8F0"/>
<mask id="mask1_482_1447" style="mask-type:alpha" maskUnits="userSpaceOnUse" x="4" y="0" width="158" height="144">
<path d="M67.6228 68.5209L67.7167 68.5216L67.9667 68.5237L67.9664 68.2737L67.9477 53.3707L67.9474 53.1207L67.6974 53.1187L67.3535 53.1158L67.1035 53.1137L67.1038 53.3637L67.1225 68.2667L67.3718 68.2688L67.3722 68.5188L67.3728 68.5188L67.6228 68.5209Z" fill="#5A5A5A" stroke="white" stroke-width="0.5"/>
<path d="M36.0673 120.165L36.0676 120.415L36.3176 120.417L36.6625 120.42L36.9125 120.422L36.9122 120.172L36.8564 75.7169L67.5275 53.922L77.6784 61.2909L77.9244 61.4695L78.051 61.1959L78.2221 60.826L78.3085 60.6393L78.1407 60.5174L67.6721 52.9173L67.526 52.8112L67.3802 52.915C56.9644 60.3342 46.5427 67.7397 36.1152 75.1314L36.0109 75.2053L36.0111 75.3338L36.0673 120.165Z" fill="#5A5A5A" stroke="white" stroke-width="0.5"/>
<path d="M67.7488 98.5125L68.0592 98.5151L67.8953 98.1591L67.7235 97.786L67.5962 97.5095L67.3503 97.6846C53.5099 107.542 39.6628 117.382 25.809 127.205L25.7047 127.279L25.7049 127.408L25.7237 142.433L25.7241 142.683L25.974 142.685L26.3166 142.688L26.5666 142.69L26.5663 142.44L26.5479 127.79L67.7488 98.5125Z" fill="#5A5A5A" stroke="white" stroke-width="0.5"/>
<path d="M46.4698 142.605L46.4702 142.855L46.7201 142.857L47.0647 142.86L47.3147 142.862L47.3144 142.612L47.2586 98.1568L77.9281 76.3614L87.8889 83.5921L87.9634 142.95L87.9637 143.2L88.2137 143.202L88.5583 143.205L88.8082 143.207L88.8079 142.957L88.733 83.2238L88.7328 83.0955L88.6286 83.0199C85.1093 80.4651 81.5908 77.9111 78.073 75.358L77.9269 75.2519L77.7811 75.3557C67.3646 82.7754 56.9435 90.1809 46.5177 97.5721L46.4134 97.646L46.4136 97.7745L46.4698 142.605Z" fill="#5A5A5A" stroke="white" stroke-width="0.5"/>
<path d="M78.0897 143.118L78.1836 143.118L78.4336 143.12L78.4333 142.87L78.3492 75.8097L78.3489 75.5597L78.0989 75.5576L77.755 75.5548L77.505 75.5527L77.5053 75.8027L77.5894 142.863L77.8388 142.866L77.8391 143.116L77.8397 143.116L78.0897 143.118Z" fill="#5A5A5A" stroke="white" stroke-width="0.5"/>
<path d="M56.7767 90.5335L56.777 90.7835L57.027 90.7856L57.0286 90.7856L57.3728 90.7885L57.6228 90.7906L57.6225 90.5406L57.6041 75.8896L98.6374 46.7295L108.598 53.961L108.635 83.5138L108.635 83.7638L108.885 83.7659L109.23 83.7687L109.48 83.7708L109.479 83.5208L109.442 53.5919L109.442 53.4635L109.337 53.3878C105.817 50.8375 102.299 48.2835 98.7822 45.7258L98.636 45.6195L98.4901 45.7234C84.6217 55.6014 70.7456 65.4619 56.862 75.3049L56.7577 75.3788L56.7578 75.5072L56.7767 90.5335Z" fill="#5A5A5A" stroke="white" stroke-width="0.5"/>
<path d="M47.1524 83.1879L47.1518 82.7005L47.0017 82.8071L46.9571 82.7105L46.8298 82.4347L46.5842 82.6093L36.2211 89.9743L36.0535 90.0934L36.1404 90.2816L36.3124 90.6543L36.4398 90.9301L36.6853 90.7556L47.0485 83.3901L46.9368 83.2339L47.1524 83.1883L47.1524 83.1879Z" fill="#5A5A5A" stroke="white" stroke-width="0.5"/>
<path d="M72.9505 57.5261L73.1184 57.4067L73.031 57.2184L72.8576 56.8448L72.73 56.5698L72.4849 56.744L67.3037 60.4274L67.1358 60.5467L67.2232 60.7351L67.3963 61.1082L67.5238 61.3833L67.769 61.209L72.9505 57.5261Z" fill="#5A5A5A" stroke="white" stroke-width="0.5"/>
<path d="M87.9932 98.0586L87.9938 98.546L88.1442 98.4391L88.1884 98.5351L88.3157 98.811L88.5614 98.6364L119.421 76.7059L129.382 83.9366L129.456 143.294L129.457 143.544L129.707 143.546L130.051 143.549L130.301 143.551L130.301 143.301L130.226 83.5679L130.226 83.4396L130.122 83.3639C126.602 80.8102 123.084 78.256 119.566 75.7013L119.42 75.5952L119.274 75.6988L88.0971 97.8564L88.208 98.0115L87.9932 98.057L87.9932 98.0586Z" fill="#5A5A5A" stroke="white" stroke-width="0.5"/>
<path d="M98.2707 90.8783L98.2711 91.1283L98.521 91.1303L98.8656 91.1332L99.1156 91.1353L99.1153 90.8853L99.0592 46.1783L99.0589 45.9283L98.8089 45.9263L98.4643 45.9234L98.2144 45.9213L98.2147 46.1713L98.2707 90.8783Z" fill="#5A5A5A" stroke="white" stroke-width="0.5"/>
<path d="M119.083 143.208L119.083 143.458L119.333 143.46L119.677 143.463L119.927 143.465L119.927 143.215L119.843 76.1554L119.843 75.9054L119.593 75.9033L119.248 75.9005L118.998 75.8984L118.998 76.1484L119.083 143.208Z" fill="#5A5A5A" stroke="white" stroke-width="0.5"/>
<path d="M88.5613 98.638L89.1915 98.1902L88.5746 98.185L88.47 97.9578L88.3429 97.6816L88.097 97.8563L77.7326 105.221L77.5651 105.34L77.6518 105.528L77.8239 105.901L77.951 106.177L78.1968 106.003L88.5613 98.638Z" fill="#5A5A5A" stroke="white" stroke-width="0.5"/>
<path d="M78.1969 106.002L78.3646 105.883L78.2776 105.695L78.1055 105.323L77.9781 105.047L77.7326 105.222L57.005 119.953L56.8371 120.072L56.9246 120.261L57.0967 120.631L57.2244 120.906L57.4693 120.732L78.1969 106.002Z" fill="#5A5A5A" stroke="white" stroke-width="0.5"/>
<path d="M88.5238 68.8324L89.154 68.3846L88.537 68.3794L88.4325 68.1526L88.3053 67.8765L88.0595 68.0511L77.695 75.4154L77.5275 75.5344L77.6143 75.7226L77.7864 76.0957L77.9136 76.3716L78.1593 76.197L88.5238 68.8324Z" fill="#5A5A5A" stroke="white" stroke-width="0.5"/>
<path d="M88.1168 113.535L88.3628 113.714L88.4894 113.44L88.6605 113.07L88.7469 112.884L88.5791 112.762L78.1959 105.225L77.95 105.047L77.8233 105.32L77.6522 105.69L77.5656 105.876L77.7336 105.998L88.1168 113.535Z" fill="#5A5A5A" stroke="white" stroke-width="0.5"/>
<path d="M109.308 98.8108L109.475 98.6918L109.388 98.5036L109.216 98.1305L109.089 97.8546L108.843 98.0292L88.116 112.759L87.9485 112.877L88.0352 113.066L88.207 113.438L88.3342 113.714L88.5799 113.54L109.308 98.8108Z" fill="#5A5A5A" stroke="white" stroke-width="0.5"/>
<path d="M87.8513 53.5365L87.8517 53.7865L88.1016 53.7885L88.4462 53.7914L88.6962 53.7935L88.6959 53.5435L88.6775 38.8933L140.076 2.36821L150.036 9.59928L150.204 143.468L150.204 143.718L150.454 143.721L150.798 143.723L151.048 143.725L151.048 143.475L150.879 9.23135L150.879 9.10321L150.775 9.02753C147.258 6.47078 143.74 3.91635 140.22 1.36423L140.074 1.25829L139.928 1.36205C122.607 13.6995 105.277 26.0149 87.9366 38.3082L87.8323 38.3821L87.8325 38.5105L87.8513 53.5365Z" fill="#5A5A5A" stroke="white" stroke-width="0.5"/>
<path d="M160.814 17.4611L160.918 17.3872L160.917 17.2589L160.917 16.7643L160.916 16.2769L160.521 16.5579L150.243 23.8614L150.076 23.9805L150.162 24.1687L150.335 24.5414L150.462 24.8172L150.707 24.6427L160.814 17.4611Z" fill="#5A5A5A" stroke="white" stroke-width="0.5"/>
<path d="M139.83 143.381L139.83 143.631L140.08 143.633L140.424 143.636L140.674 143.638L140.674 143.388L140.496 1.81653L140.496 1.56653L140.246 1.56445L139.902 1.5616L139.652 1.55952L139.653 1.80952L139.83 143.381Z" fill="#5A5A5A" stroke="white" stroke-width="0.5"/>
<path d="M129.98 39.3726L130.06 39.316L130.079 39.22L130.08 39.2183L130.096 39.1379L130.061 39.0631L129.889 38.6928L129.761 38.4181L129.516 38.5922L108.788 53.3215L108.62 53.4406L108.707 53.6288L108.879 54.0012L109.007 54.2767L109.252 54.1023L129.98 39.3726Z" fill="#5A5A5A" stroke="white" stroke-width="0.5"/>
<path d="M150.708 24.6434L150.875 24.5243L150.788 24.3362L150.616 23.9634L150.489 23.6877L150.244 23.8622L139.88 31.2268L139.712 31.3459L139.799 31.534L139.971 31.9071L140.098 32.1831L140.344 32.0085L150.708 24.6434Z" fill="#5A5A5A" stroke="white" stroke-width="0.5"/>
<path d="M150.263 39.542L150.577 39.7706L150.648 39.419L150.807 39.0765L150.895 38.8895L150.726 38.7673L140.343 31.231L140.098 31.053L139.971 31.3253L139.798 31.6956L139.711 31.8827L139.879 32.0049L150.263 39.542Z" fill="#5A5A5A" stroke="white" stroke-width="0.5"/>
<path d="M140.325 17.1064L140.429 17.0325L140.429 16.9042L140.429 16.9026L140.429 16.8477L140.406 16.7976L140.234 16.4245L140.107 16.1485L139.861 16.3231L108.769 38.4179L108.601 38.5369L108.688 38.7249L108.86 39.0988L108.987 39.3751L109.233 39.2004L140.325 17.1064Z" fill="#5A5A5A" stroke="white" stroke-width="0.5"/>
<path d="M150.245 24.6393L150.491 24.8179L150.617 24.5442L150.788 24.1744L150.875 23.9876L150.707 23.8657L140.324 16.3286L140.078 16.15L139.952 16.4238L139.78 16.7941L139.694 16.9808L139.862 17.1026L150.245 24.6393Z" fill="#5A5A5A" stroke="white" stroke-width="0.5"/>
<path d="M150.727 39.545L150.831 39.4711L150.83 39.3429L150.83 39.3412L150.83 39.2862L150.807 39.236L150.635 38.8637L150.508 38.5881L150.262 38.7626L139.898 46.1289L139.731 46.248L139.818 46.4361L139.99 46.8089L140.117 47.0846L140.363 46.9101L150.727 39.545Z" fill="#5A5A5A" stroke="white" stroke-width="0.5"/>
<path d="M140.363 46.91L140.53 46.791L140.444 46.6028L140.271 46.23L140.144 45.9543L139.899 46.1288L119.17 60.8585L119.003 60.9776L119.09 61.1657L119.261 61.538L119.389 61.8139L119.634 61.6394L140.363 46.91Z" fill="#5A5A5A" stroke="white" stroke-width="0.5"/>
<path d="M150.689 9.74067L150.857 9.62153L150.77 9.43331L150.598 9.061L150.47 8.78541L150.225 8.95984L139.861 16.3245L139.693 16.4435L139.78 16.6317L139.952 17.0048L140.08 17.2808L140.325 17.1061L150.689 9.74067Z" fill="#5A5A5A" stroke="white" stroke-width="0.5"/>
<path d="M150.698 17.1927L150.866 17.0736L150.779 16.8855L150.607 16.5124L150.48 16.2364L150.234 16.411L139.87 23.7757L139.703 23.8948L139.79 24.0829L139.962 24.4557L140.089 24.7314L140.335 24.5569L150.698 17.1927Z" fill="#5A5A5A" stroke="white" stroke-width="0.5"/>
<path d="M150.235 17.1885L150.481 17.3672L150.608 17.0934L150.779 16.7231L150.865 16.5364L150.697 16.4146L140.315 8.87747L140.069 8.6988L139.942 8.97263L139.771 9.3429L139.685 9.5296L139.853 9.65142L150.235 17.1885Z" fill="#5A5A5A" stroke="white" stroke-width="0.5"/>
<path d="M150.282 54.4426L150.528 54.6211L150.655 54.3476L150.826 53.9782L150.912 53.7914L150.744 53.6695L140.362 46.1324L140.116 45.9538L139.989 46.2274L139.818 46.5973L139.732 46.784L139.899 46.9059L150.282 54.4426Z" fill="#5A5A5A" stroke="white" stroke-width="0.5"/>
<path d="M150.736 46.996L150.903 46.8769L150.817 46.6887L150.644 46.316L150.517 46.0402L150.272 46.2147L139.908 53.5794L139.74 53.6985L139.827 53.8867L139.999 54.2591L140.127 54.5346L140.372 54.3602L150.736 46.996Z" fill="#5A5A5A" stroke="white" stroke-width="0.5"/>
<path d="M150.745 54.4467L150.913 54.3276L150.826 54.1394L150.654 53.7671L150.526 53.4914L150.281 53.6659L139.917 61.0314L139.75 61.1505L139.837 61.3387L140.009 61.7111L140.136 61.9867L140.381 61.8122L150.745 54.4467Z" fill="#5A5A5A" stroke="white" stroke-width="0.5"/>
<path d="M150.3 69.3462L150.546 69.5244L150.672 69.2517L150.845 68.8818L150.932 68.6948L150.763 68.5727L140.381 61.0352L140.136 60.8573L140.009 61.1293L139.836 61.4988L139.748 61.6859L139.917 61.8083L150.3 69.3462Z" fill="#5A5A5A" stroke="white" stroke-width="0.5"/>
<path d="M150.291 61.8946L150.537 62.0731L150.664 61.7996L150.835 61.4302L150.922 61.2434L150.754 61.1215L140.371 53.5835L140.125 53.405L139.999 53.6785L139.827 54.0479L139.741 54.2347L139.909 54.3567L150.291 61.8946Z" fill="#5A5A5A" stroke="white" stroke-width="0.5"/>
<path d="M150.764 69.3504L150.931 69.2314L150.844 69.0432L150.672 68.6705L150.545 68.3947L150.299 68.5692L139.936 75.9335L139.768 76.0525L139.855 76.2406L140.027 76.6138L140.154 76.8897L140.4 76.7151L150.764 69.3504Z" fill="#5A5A5A" stroke="white" stroke-width="0.5"/>
<path d="M150.319 84.2491L150.565 84.4277L150.692 84.154L150.863 83.7841L150.949 83.5974L150.781 83.4755L140.399 75.938L140.153 75.7593L140.026 76.0332L139.855 76.4035L139.769 76.5902L139.937 76.712L150.319 84.2491Z" fill="#5A5A5A" stroke="white" stroke-width="0.5"/>
<path d="M150.773 76.8008L150.941 76.6816L150.854 76.4934L150.682 76.1215L150.554 75.846L150.309 76.0204L139.945 83.3855L139.777 83.5045L139.864 83.6927L140.036 84.0654L140.164 84.3412L140.409 84.1667L150.773 76.8008Z" fill="#5A5A5A" stroke="white" stroke-width="0.5"/>
<path d="M150.329 91.6998L150.44 91.5455L150.701 91.605L150.872 91.2343L150.959 91.0476L150.791 90.9259L140.408 83.3892L140.162 83.2106L140.036 83.4843L139.865 83.8541L139.778 84.0409L139.946 84.1627L150.329 91.6998Z" fill="#5A5A5A" stroke="white" stroke-width="0.5"/>
<path d="M150.792 91.7038L150.959 91.5848L150.873 91.3967L150.701 91.0232L150.573 90.7471L150.328 90.9218L139.964 98.2872L139.796 98.4064L139.883 98.5946L140.055 98.9669L140.183 99.2425L140.428 99.0681L150.792 91.7038Z" fill="#5A5A5A" stroke="white" stroke-width="0.5"/>
<path d="M150.347 106.602L150.593 106.781L150.72 106.507L150.891 106.137L150.977 105.95L150.81 105.828L140.427 98.291L140.181 98.1125L140.055 98.386L139.883 98.7555L139.797 98.9422L139.965 99.0642L150.347 106.602Z" fill="#5A5A5A" stroke="white" stroke-width="0.5"/>
<path d="M150.811 106.605L150.915 106.531L150.914 106.403L150.914 106.403L150.914 106.348L150.891 106.298L150.719 105.924L150.592 105.649L150.346 105.823L139.982 113.188L139.815 113.307L139.902 113.495L140.074 113.868L140.201 114.144L140.447 113.969L150.811 106.605Z" fill="#5A5A5A" stroke="white" stroke-width="0.5"/>
<path d="M150.904 98.9509L150.904 98.4635L150.754 98.57L150.709 98.4729L150.582 98.1968L150.336 98.3715L139.973 105.737L139.806 105.856L139.892 106.044L140.064 106.417L140.192 106.693L140.437 106.519L150.801 99.1531L150.689 98.9969L150.904 98.9513L150.904 98.9509Z" fill="#5A5A5A" stroke="white" stroke-width="0.5"/>
<path d="M150.82 114.057L150.988 113.938L150.901 113.75L150.729 113.378L150.601 113.102L150.356 113.276L139.992 120.64L139.824 120.76L139.911 120.948L140.083 121.32L140.211 121.596L140.456 121.422L150.82 114.057Z" fill="#5A5A5A" stroke="white" stroke-width="0.5"/>
<path d="M150.714 128.913L150.883 128.708L150.834 128.673L150.919 128.491L151.006 128.304L150.838 128.182L140.455 120.644L140.21 120.466L140.083 120.738L139.91 121.107L139.823 121.294L139.992 121.417L150.375 128.955L150.502 128.779L150.713 128.914L150.714 128.913Z" fill="#5A5A5A" stroke="white" stroke-width="0.5"/>
<path d="M150.839 128.958L151.006 128.839L150.919 128.651L150.747 128.278L150.62 128.003L150.375 128.177L140.011 135.541L139.843 135.66L139.93 135.848L140.102 136.222L140.229 136.498L140.475 136.323L150.839 128.958Z" fill="#5A5A5A" stroke="white" stroke-width="0.5"/>
<path d="M98.4239 60.6859L98.2565 60.8049L98.343 60.9929L98.5148 61.366L98.642 61.6423L98.8878 61.4675L109.252 54.1025L109.419 53.9834L109.332 53.7951L109.16 53.4228L109.033 53.1472L108.787 53.3217L98.4239 60.6859Z" fill="#5A5A5A" stroke="white" stroke-width="0.5"/>
<path d="M108.807 69.001L109.053 69.1796L109.18 68.906L109.351 68.5361L109.437 68.3494L109.269 68.2275L98.8868 60.69L98.6407 60.5113L98.5141 60.7851L98.343 61.1554L98.2567 61.3421L98.4245 61.4639L108.807 69.001Z" fill="#5A5A5A" stroke="white" stroke-width="0.5"/>
<path d="M98.4332 68.1374L98.2657 68.2564L98.3524 68.4445L98.5242 68.8172L98.6514 69.0933L98.8971 68.9186L109.261 61.554L109.428 61.435L109.342 61.2468L109.17 60.8737L109.042 60.5977L108.797 60.7723L98.4332 68.1374Z" fill="#5A5A5A" stroke="white" stroke-width="0.5"/>
<path d="M108.816 76.4523L108.928 76.2979L109.189 76.3575L109.36 75.9873L109.447 75.8006L109.279 75.6787L98.8962 68.1416L98.6502 67.963L98.5236 68.2367L98.3524 68.6065L98.266 68.7933L98.4339 68.9152L108.816 76.4523Z" fill="#5A5A5A" stroke="white" stroke-width="0.5"/>
<path d="M103.624 71.9065L103.52 71.9805L103.52 72.1087L103.52 72.1104L103.52 72.1657L103.543 72.216L103.715 72.5863L103.843 72.861L104.088 72.687L109.27 69.0052L109.438 68.8862L109.351 68.698L109.179 68.3253L109.052 68.0495L108.806 68.224L103.624 71.9065Z" fill="#5A5A5A" stroke="white" stroke-width="0.5"/>
<path d="M103.634 80.1352L104.03 80.4229L104.03 79.9875L104.178 79.6701L104.265 79.4831L104.097 79.3609L98.9059 75.5929L98.6598 75.4143L98.5333 75.6881L98.3621 76.0584L98.2758 76.2451L98.4436 76.3669L103.634 80.1352Z" fill="#5A5A5A" stroke="white" stroke-width="0.5"/>
<path d="M98.449 83.0397L98.0428 83.3283L98.4168 83.4485L98.5441 83.7211L98.672 83.9951L98.9165 83.8214L109.281 76.4563L109.449 76.337L109.361 76.1487L109.188 75.7755L109.061 75.5005L108.815 75.6747L98.449 83.0397Z" fill="#5A5A5A" stroke="white" stroke-width="0.5"/>
<path d="M119.208 90.6633L119.04 90.7822L119.127 90.9702L119.298 91.3438L119.426 91.6202L119.671 91.4454L130.036 84.0799L130.204 83.9605L130.117 83.7721L129.945 83.4018L129.817 83.1271L129.572 83.3011L119.208 90.6633Z" fill="#5A5A5A" stroke="white" stroke-width="0.5"/>
<path d="M129.592 98.9784L129.838 99.1571L129.964 98.8832L130.135 98.513L130.222 98.3263L130.054 98.2045L119.671 90.6665L119.424 90.4876L119.298 90.7619L119.127 91.1326L119.041 91.3192L119.209 91.4409L129.592 98.9784Z" fill="#5A5A5A" stroke="white" stroke-width="0.5"/>
<path d="M119.226 105.565L119.059 105.684L119.145 105.872L119.317 106.246L119.444 106.522L119.69 106.347L130.055 98.9827L130.223 98.8637L130.136 98.6755L129.964 98.3024L129.836 98.0265L129.591 98.201L119.226 105.565Z" fill="#5A5A5A" stroke="white" stroke-width="0.5"/>
<path d="M119.217 98.1144L119.137 98.1712L119.118 98.2677L119.117 98.2694L119.102 98.3493L119.136 98.4237L119.308 98.794L119.435 99.069L119.68 98.8948L130.045 91.531L130.212 91.4121L130.125 91.2241L129.954 90.8505L129.827 90.5741L129.581 90.7489L119.217 98.1144Z" fill="#5A5A5A" stroke="white" stroke-width="0.5"/>
<path d="M119.245 120.467L119.141 120.541L119.141 120.669L119.141 120.672L119.141 120.727L119.165 120.778L119.336 121.148L119.464 121.423L119.709 121.249L130.074 113.884L130.241 113.765L130.154 113.577L129.982 113.204L129.855 112.928L129.609 113.103L119.245 120.467Z" fill="#5A5A5A" stroke="white" stroke-width="0.5"/>
<path d="M129.61 113.88L130.007 114.168L130.006 113.735L130.154 113.415L130.241 113.228L130.073 113.106L119.689 105.569L119.443 105.39L119.316 105.664L119.146 106.035L119.06 106.222L119.227 106.343L129.61 113.88Z" fill="#5A5A5A" stroke="white" stroke-width="0.5"/>
<path d="M129.62 121.331L130.016 121.619L130.015 121.184L130.163 120.866L130.25 120.679L130.082 120.557L119.699 113.021L119.452 112.842L119.326 113.116L119.155 113.487L119.069 113.673L119.237 113.795L129.62 121.331Z" fill="#5A5A5A" stroke="white" stroke-width="0.5"/>
<path d="M119.151 128.122L119.151 128.609L119.302 128.502L119.345 128.597L119.473 128.872L119.718 128.698L130.083 121.332L130.251 121.213L130.164 121.025L129.991 120.654L129.864 120.38L129.619 120.554L119.254 127.92L119.365 128.074L119.151 128.119L119.151 128.122Z" fill="#5A5A5A" stroke="white" stroke-width="0.5"/>
<path d="M129.629 128.783L129.739 128.63L130.001 128.69L130.173 128.32L130.259 128.134L130.091 128.012L119.708 120.474L119.462 120.295L119.335 120.568L119.164 120.936L119.078 121.123L119.246 121.245L129.629 128.783Z" fill="#5A5A5A" stroke="white" stroke-width="0.5"/>
<path d="M119.264 135.371L119.096 135.49L119.183 135.678L119.355 136.05L119.482 136.326L119.728 136.152L130.093 128.787L130.26 128.668L130.173 128.48L130.001 128.107L129.874 127.832L129.628 128.006L119.264 135.371Z" fill="#5A5A5A" stroke="white" stroke-width="0.5"/>
<path d="M129.638 136.235L130.035 136.523L130.034 136.09L130.182 135.769L130.269 135.583L130.101 135.461L124.909 131.692L124.663 131.513L124.537 131.787L124.365 132.157L124.279 132.344L124.447 132.466L129.638 136.235Z" fill="#5A5A5A" stroke="white" stroke-width="0.5"/>
<path d="M150.829 121.508L150.997 121.389L150.91 121.2L150.738 120.827L150.611 120.551L150.365 120.726L140.001 128.091L139.834 128.21L139.921 128.398L140.093 128.771L140.22 129.047L140.466 128.872L150.829 121.508Z" fill="#5A5A5A" stroke="white" stroke-width="0.5"/>
<path d="M77.7138 90.3181L77.5463 90.4371L77.633 90.6252L77.8048 90.9979L77.932 91.2739L78.1777 91.0993L88.5422 83.7347L88.7096 83.6157L88.623 83.4277L88.4513 83.0545L88.3241 82.7783L88.0783 82.953L77.7138 90.3181Z" fill="#5A5A5A" stroke="white" stroke-width="0.5"/>
<path d="M77.7054 83.6446L88.0037 91.1209L88.1174 91.8365L88.4617 91.0892L88.6326 90.7185L88.7185 90.5319L88.5509 90.4102L78.1678 82.8735L77.9224 82.6954L77.7954 82.968L77.6242 83.3355L77.5371 83.5224L77.7054 83.6446Z" fill="#5A5A5A" stroke="white" stroke-width="0.5"/>
<path d="M77.7232 97.7702L77.5558 97.8891L77.6424 98.0772L77.8141 98.4503L77.9413 98.7265L78.1871 98.5518L88.5516 91.1867L88.7189 91.0678L88.6325 90.8798L88.4607 90.5063L88.3336 90.2299L88.0877 90.4047L77.7232 97.7702Z" fill="#5A5A5A" stroke="white" stroke-width="0.5"/>
<path d="M88.098 98.6342L88.3441 98.8128L88.4706 98.539L88.6418 98.1687L88.7281 97.982L88.5603 97.8602L78.1771 90.3223L77.9309 90.1435L77.8044 90.4175L77.6332 90.7882L77.5471 90.9749L77.7148 91.0967L88.098 98.6342Z" fill="#5A5A5A" stroke="white" stroke-width="0.5"/>
<path d="M77.7513 120.123L77.6612 120.187L77.649 120.297L77.6486 120.3L77.6409 120.37L77.6706 120.434L77.8427 120.804L77.9703 121.079L78.2153 120.905L88.5797 113.54L88.7472 113.421L88.6605 113.233L88.4888 112.86L88.3616 112.584L88.1158 112.759L77.7513 120.123Z" fill="#5A5A5A" stroke="white" stroke-width="0.5"/>
<path d="M82.943 124.67L83.0531 124.517L83.3154 124.577L83.4878 124.207L83.5749 124.02L83.4066 123.898L78.2157 120.129L77.9714 119.952L77.8438 120.223L77.6707 120.59L77.5823 120.777L77.7514 120.9L82.943 124.67Z" fill="#5A5A5A" stroke="white" stroke-width="0.5"/>
<path d="M77.7597 127.575L77.5913 127.694L77.6795 127.883L77.8536 128.255L77.9816 128.529L78.2259 128.356L88.5891 120.99L88.7567 120.871L88.6697 120.683L88.4973 120.31L88.37 120.034L88.1245 120.208L77.7597 127.575Z" fill="#5A5A5A" stroke="white" stroke-width="0.5"/>
<path d="M77.7701 135.026L77.6027 135.145L77.6893 135.333L77.861 135.706L77.9882 135.982L78.234 135.807L88.5985 128.442L88.766 128.323L88.6792 128.135L88.5075 127.762L88.3802 127.486L88.1345 127.661L77.7701 135.026Z" fill="#5A5A5A" stroke="white" stroke-width="0.5"/>
<path d="M5.47553 142.514L5.56875 142.515L5.81875 142.517L5.81843 142.267L5.78136 112.712L36.4525 90.9175L46.6027 98.286L46.848 98.4642L46.975 98.1915L47.1462 97.8241L47.2333 97.6372L47.065 97.515L36.5971 89.9149L36.451 89.8087L36.3052 89.9126C25.8891 97.332 15.468 104.738 5.04181 112.129L4.93753 112.203L4.93769 112.331L4.97523 142.26L5.22389 142.262L5.22421 142.512L5.22553 142.512L5.47553 142.514Z" fill="#5A5A5A" stroke="white" stroke-width="0.5"/>
<path d="M36.136 105.078L36.1366 105.565L36.287 105.459L36.3312 105.554L36.4584 105.831L36.7041 105.656L47.0673 98.2904L47.2353 98.171L47.1477 97.9825L46.9756 97.6123L46.8479 97.3375L46.603 97.5116L36.2399 104.876L36.3506 105.031L36.136 105.076L36.136 105.078Z" fill="#5A5A5A" stroke="white" stroke-width="0.5"/>
<path d="M46.6227 113.19L47.0188 113.478L47.0183 113.045L47.1665 112.725L47.2529 112.538L47.085 112.416L36.7032 104.879L36.4569 104.7L36.3304 104.974L36.1593 105.345L36.0731 105.532L36.2408 105.653L46.6227 113.19Z" fill="#5A5A5A" stroke="white" stroke-width="0.5"/>
<path d="M36.2492 112.327L36.1451 112.401L36.1453 112.529L36.1453 112.529L36.1454 112.584L36.1685 112.635L36.3406 113.007L36.4679 113.283L36.7135 113.109L47.0766 105.744L47.2441 105.625L47.1574 105.437L46.9853 105.063L46.8581 104.787L46.6123 104.962L36.2492 112.327Z" fill="#5A5A5A" stroke="white" stroke-width="0.5"/>
<path d="M36.6938 97.4296L36.5834 97.5825L36.3214 97.5224L36.1489 97.8927L36.0618 98.0797L36.2302 98.2018L41.4217 101.97L41.6664 102.148L41.7938 101.876L41.9663 101.509L42.0542 101.322L41.8854 101.199L36.6938 97.4296Z" fill="#5A5A5A" stroke="white" stroke-width="0.5"/>
<path d="M26.3394 113.022L26.9696 112.574L26.3525 112.569L26.2477 112.342L26.1204 112.066L25.8748 112.241L5.14724 126.97L4.97966 127.089L5.06654 127.277L5.23862 127.65L5.36593 127.926L5.6115 127.751L26.3394 113.022Z" fill="#5A5A5A" stroke="white" stroke-width="0.5"/>
<path d="M47.106 128.097L47.2742 127.978L47.1864 127.789L47.013 127.417L46.8852 127.142L46.6405 127.316L41.4582 130.998L41.2902 131.117L41.3778 131.306L41.5512 131.679L41.6788 131.954L41.9238 131.78L47.106 128.097Z" fill="#5A5A5A" stroke="white" stroke-width="0.5"/>
<path d="M119.737 106.304L119.575 106.13L119.771 106.041L119.599 105.667L119.472 105.391L119.226 105.566L98.4985 120.295L98.331 120.414L98.4177 120.602L98.5898 120.975L98.717 121.251L98.9627 121.077L119.444 106.523L119.483 106.608L119.737 106.305L119.737 106.304Z" fill="#5A5A5A" stroke="white" stroke-width="0.5"/>
<path d="M119.719 128.701L120.349 128.253L119.731 128.248L119.626 128.02L119.498 127.746L119.253 127.92L114.072 131.601L113.904 131.721L113.991 131.909L114.164 132.282L114.291 132.557L114.537 132.383L119.719 128.701Z" fill="#5A5A5A" stroke="white" stroke-width="0.5"/>
<path d="M78.217 120.904L78.3358 120.82L78.3193 120.674L78.319 120.671L78.3143 120.63L78.2966 120.592L78.1226 120.222L77.9942 119.949L77.7504 120.122L72.5692 123.806L72.4012 123.925L72.4888 124.114L72.6622 124.487L72.7898 124.762L73.0348 124.587L78.217 120.904Z" fill="#5A5A5A" stroke="white" stroke-width="0.5"/>
<path d="M98.8979 68.9193L99.528 68.4715L98.9093 68.4663L98.8028 68.2383L98.6748 67.9642L98.4303 68.1381L93.25 71.821L93.082 71.9405L93.1697 72.1289L93.3431 72.5017L93.4708 72.7762L93.7157 72.6022L98.8979 68.9193Z" fill="#5A5A5A" stroke="white" stroke-width="0.5"/>
<path d="M140.381 61.812L140.55 61.6924L140.462 61.5038L140.288 61.1314L140.16 60.8573L139.915 61.0311L134.734 64.7141L134.566 64.8335L134.653 65.0219L134.826 65.3942L134.954 65.669L135.199 65.4949L140.381 61.812Z" fill="#5A5A5A" stroke="white" stroke-width="0.5"/>
</mask>
<g mask="url(#mask1_482_1447)">
<g filter="url(#filter0_ii_482_1447)">
<rect width="203.758" height="217.685" rx="101.879" transform="matrix(-0.00665778 -0.999978 -1 5.32109e-05 186.393 171.794)" fill="url(#paint0_linear_482_1447)"/>
</g>
</g>
</g>
<defs>
<filter id="filter0_ii_482_1447" x="-31.973" y="-36.5969" width="217.69" height="213.041" filterUnits="userSpaceOnUse" color-interpolation-filters="sRGB">
<feFlood flood-opacity="0" result="BackgroundImageFix"/>
<feBlend mode="normal" in="SourceGraphic" in2="BackgroundImageFix" result="shape"/>
<feColorMatrix in="SourceAlpha" type="matrix" values="0 0 0 0 0 0 0 0 0 0 0 0 0 0 0 0 0 0 127 0" result="hardAlpha"/>
<feOffset dy="9.28723"/>
<feGaussianBlur stdDeviation="2.32181"/>
<feComposite in2="hardAlpha" operator="arithmetic" k2="-1" k3="1"/>
<feColorMatrix type="matrix" values="0 0 0 0 1 0 0 0 0 1 0 0 0 0 1 0 0 0 0.4 0"/>
<feBlend mode="normal" in2="shape" result="effect1_innerShadow_482_1447"/>
<feColorMatrix in="SourceAlpha" type="matrix" values="0 0 0 0 0 0 0 0 0 0 0 0 0 0 0 0 0 0 127 0" result="hardAlpha"/>
<feOffset dy="-9.28723"/>
<feGaussianBlur stdDeviation="2.32181"/>
<feComposite in2="hardAlpha" operator="arithmetic" k2="-1" k3="1"/>
<feColorMatrix type="matrix" values="0 0 0 0 0 0 0 0 0 0 0 0 0 0 0 0 0 0 0.5 0"/>
<feBlend mode="normal" in2="effect1_innerShadow_482_1447" result="effect2_innerShadow_482_1447"/>
</filter>
<linearGradient id="paint0_linear_482_1447" x1="2.74113" y1="27.2107" x2="171.046" y2="32.7826" gradientUnits="userSpaceOnUse">
<stop offset="0.15625" stop-color="#5E98CB"/>
<stop offset="0.850571" stop-color="white"/>
</linearGradient>
</defs>
</svg>
